<?xml version="1.0" standalone="no"?>
<!-- Generator: Adobe Fireworks 10, Export SVG Extension by Aaron Beall (http://fireworks.abeall.com) . Version: 0.6.1  -->
<!DOCTYPE svg PUBLIC "-//W3C//DTD SVG 1.1//EN" "http://www.w3.org/Graphics/SVG/1.1/DTD/svg11.dtd">
<svg id="Untitled-P%E1gina%201" viewBox="0 0 139 89" style="background-color:#ffffff00" version="1.1"
	xmlns="http://www.w3.org/2000/svg" xmlns:xlink="http://www.w3.org/1999/xlink" xml:space="preserve"
	x="0px" y="0px" width="139px" height="89px"
>
	<g>
		<g>
			<path d="M 65.4845 86 C 86.1831 86 102.969 69.5 102.969 49.1354 C 102.969 42.8719 101.3853 36.9749 98.582 31.8108 C 98.2771 31.8525 97.9637 31.8691 97.6588 31.8691 C 97.481 31.8691 97.3032 31.8608 97.1168 31.8525 L 92.3488 31.4944 L 88.9187 34.8677 C 91.5356 39.0155 93.0516 43.9048 93.0516 49.1354 C 93.0431 64.0945 80.7036 76.23 65.4929 76.23 C 50.2825 76.23 37.9343 64.0945 37.9343 49.1354 C 37.9343 34.1681 50.2739 22.0408 65.4845 22.0408 C 70.8116 22.0408 75.7831 23.5317 79.9922 26.1055 L 83.1005 23.0487 L 82.6769 17.6681 C 82.6429 17.235 82.6515 16.8102 82.6938 16.3854 C 77.5447 13.7617 71.6841 12.2708 65.4761 12.2708 C 44.7773 12.2708 28 28.7791 28 49.1354 C 28 69.4917 44.7773 86 65.4845 86 L 65.4845 86 Z" fill="#089de8"/>
			<path d="M 65.4845 39.6068 C 65.7301 39.6068 65.9758 39.6152 66.2212 39.6318 L 73.1406 32.827 L 73.2932 32.6771 C 70.9216 31.5861 68.2793 30.9696 65.4845 30.9696 C 55.2877 30.9696 47.0303 39.0905 47.0303 49.1188 C 47.0303 59.147 55.2877 67.2761 65.4845 67.2761 C 75.6814 67.2761 83.9304 59.1553 83.9304 49.1354 C 83.9304 46.3867 83.3121 43.7881 82.1942 41.4642 L 82.0417 41.6143 L 75.1309 48.4108 C 75.1478 48.6523 75.1563 48.8939 75.1563 49.1354 C 75.1563 54.391 70.8286 58.6639 65.4675 58.6639 C 60.1151 58.6639 55.7874 54.3994 55.7874 49.1354 C 55.7958 43.8798 60.1405 39.6068 65.4845 39.6068 L 65.4845 39.6068 Z" fill="#043877"/>
			<path d="M 104.1123 16.2688 L 106.3313 14.0865 C 107.3475 13.087 107.3475 11.4795 106.3313 10.48 L 104.7898 8.9558 C 104.2817 8.4561 103.6212 8.2062 102.9606 8.2062 C 102.2999 8.2062 101.6309 8.4561 101.1312 8.9558 L 98.582 11.4629 L 98.0569 4.7913 C 98.0231 4.2998 97.608 4 97.1846 4 C 96.9645 4 96.7441 4.075 96.5747 4.2499 L 86.5558 14.0948 C 85.6581 14.9778 85.1923 16.2104 85.2854 17.4681 L 85.3108 17.8513 L 85.7936 24.0232 L 82.1772 27.588 L 75.656 34.0013 L 75.5035 34.1514 L 69.1941 40.3566 L 66.3906 43.1135 C 66.0266 43.4717 65.7979 43.9547 65.764 44.4628 L 65.5862 46.62 C 65.4845 47.8777 66.4923 48.9438 67.7627 48.9438 C 67.7966 48.9438 67.8303 48.9438 67.8728 48.9438 L 70.1934 48.8356 C 70.7354 48.8105 71.252 48.5857 71.6248 48.2108 L 74.394 45.4873 L 80.7036 39.2821 L 80.856 39.1322 L 87.3773 32.7188 L 91.3156 28.8457 L 97.0406 29.2788 L 97.2947 29.2955 C 97.4048 29.3038 97.5233 29.3038 97.625 29.3038 C 98.7767 29.3038 99.8947 28.854 100.7246 28.0461 L 110.7438 18.1927 C 111.2688 17.6764 110.9386 16.7852 110.1932 16.7268 L 104.1123 16.2688 L 104.1123 16.2688 Z" fill="#089de8"/>
		</g>
	</g>
</svg>