<?xml version="1.0" standalone="no"?>
<!-- Generator: Adobe Fireworks 10, Export SVG Extension by Aaron Beall (http://fireworks.abeall.com) . Version: 0.6.1  -->
<!DOCTYPE svg PUBLIC "-//W3C//DTD SVG 1.1//EN" "http://www.w3.org/Graphics/SVG/1.1/DTD/svg11.dtd">
<svg id="Untitled-P%E1gina%201" viewBox="0 0 139 89" style="background-color:#ffffff00" version="1.1"
	xmlns="http://www.w3.org/2000/svg" xmlns:xlink="http://www.w3.org/1999/xlink" xml:space="preserve"
	x="0px" y="0px" width="139px" height="89px"
>
	<g>
		<path d="M 29.4827 67.3279 C 31.2271 66.6016 33.0847 65.8043 34.8713 65.0211 C 34.7155 64.8502 34.5736 64.6366 34.4602 64.4373 C 33.8645 63.2982 33.6093 62.1732 33.6802 61.0199 L 40.0332 59.9946 C 40.7422 59.0548 41.3521 58.0012 41.9052 56.7908 C 42.3872 55.7798 42.8411 54.5553 43.2948 53.1598 C 43.7344 51.7358 44.0037 50.1552 44.0889 48.3612 C 44.1738 47.2076 44.1172 45.8124 43.9329 44.1606 C 43.7344 42.5374 43.3799 40.8145 42.8694 39.0486 C 42.3589 37.2831 41.6924 35.5459 40.8416 33.8086 C 40.019 32.0857 38.9696 30.5336 37.7358 29.1523 C 36.5022 27.7711 35.0416 26.6606 33.3683 25.7919 C 31.6948 24.9375 29.823 24.5105 27.7244 24.5105 C 27.2422 24.5105 26.8025 24.5245 26.3772 24.5531 C 25.9518 24.5673 25.498 24.6101 25.03 24.6387 C 23.4136 24.6387 21.7827 24.9233 20.1519 25.4645 C 17.3298 26.276 15.0894 27.5149 13.4445 29.1952 C 11.7711 30.8754 10.5374 32.7692 9.6865 34.8909 C 8.864 36.9983 8.3252 39.2053 8.1125 41.5264 C 7.8999 43.8472 7.8007 46.04 7.8007 48.0763 C 7.8007 50.5541 8.0133 52.5618 8.4387 54.1139 C 8.8783 55.6659 9.332 56.9048 9.8708 57.8018 C 10.4666 58.8698 11.1614 59.6671 11.927 60.1797 L 17.4434 61.0056 C 17.4717 61.5609 17.4717 62.0878 17.4434 62.5862 C 17.4008 63.0846 17.2732 63.5403 17.0181 63.9817 C 16.7769 64.423 16.4365 64.8645 15.9827 65.3059 C 15.5432 65.7616 14.9052 66.2457 14.0967 66.7583 C 12.9906 67.4845 11.6862 68.0114 10.2113 68.3815 C 8.7507 68.7518 7.3042 69.1647 5.9287 69.6631 C 4.5674 70.1615 3.3479 70.8022 2.3126 71.6139 C 1.249 72.4254 0.5969 73.6073 0.3557 75.188 C -0.0271 77.9076 -0.098 80.1432 0.1289 81.8661 C 0.3557 83.6033 0.696 84.6428 1.1216 84.9845 C 1.5044 85.2836 2.6246 85.6395 4.454 86.0525 C 6.2833 86.4655 8.4244 86.8499 10.8352 87.2344 C 13.0757 87.5903 15.3872 87.8893 17.7412 88.1313 C 17.7412 85.8531 17.812 82.9056 17.8688 80.2571 C 17.9255 78.3776 17.9539 76.5977 17.9539 75.4727 L 17.9539 75.188 L 18.0389 74.9174 C 19.4713 70.8165 23.3284 69.4779 26.7458 68.3103 C 27.696 68.0114 28.6177 67.6981 29.4827 67.3279 Z" fill="#089de8"/>
		<path d="M 137.9365 82.1652 C 136.9722 79.7729 135.1145 77.8649 132.9873 76.441 C 128.7899 73.5361 123.6707 72.4683 119.2747 69.9763 C 117.8142 69.0935 116.3109 67.9402 115.7437 66.2599 C 115.4744 63.9531 115.5736 61.6322 115.5736 59.3254 C 116.3535 58.7416 116.8923 57.8872 117.3745 57.0614 C 118.3386 55.2529 119.0336 53.2878 119.3171 51.266 C 120.0405 51.1235 120.6501 50.6964 121.0615 50.0984 C 121.8131 48.9592 122.0967 47.6066 122.2244 46.2681 C 122.3235 45.1005 121.8699 43.89 120.9338 43.1637 C 122.0967 39.3192 122.905 35.2611 122.4795 31.2455 C 122.2385 28.8391 121.3877 26.3756 119.5725 24.7098 C 118.3245 23.5563 116.6511 22.9583 114.9922 22.7019 C 114.5667 22.1039 114.0562 21.5487 113.418 21.1783 C 111.7023 20.1105 109.646 19.8541 107.6748 19.8115 C 104.1865 19.8684 100.5137 20.4523 97.6208 22.5311 C 96.1743 23.5563 95.0259 24.9802 94.2742 26.5751 C 93.3383 28.5259 92.9412 30.7046 92.842 32.8403 C 92.7002 36.329 93.3242 39.7749 94.1609 43.1497 C 93.2815 43.8472 92.7993 44.9579 92.8562 46.0686 C 92.927 47.165 93.1396 48.2758 93.5935 49.2867 C 93.9764 50.2266 94.7422 51.0524 95.7773 51.2516 C 96.0468 53.1598 96.6991 55.0251 97.5925 56.7196 C 98.1172 57.6736 98.6985 58.6277 99.5919 59.3112 C 99.5919 61.6322 99.677 63.9531 99.4219 66.2457 C 99.3225 66.559 99.1807 66.8438 98.9963 67.1285 C 99.0674 67.1713 99.1382 67.1854 99.1948 67.2139 C 100.0599 67.5699 100.9817 67.8832 101.8892 68.2107 C 105.3069 69.3926 109.1781 70.7311 110.5962 74.8177 L 110.6812 75.0883 L 110.6812 75.373 C 110.6812 76.4836 110.7239 78.2635 110.7664 80.1289 C 110.823 82.3218 110.8656 84.7567 110.8939 86.8071 L 139 86.8071 C 138.9009 85.2266 138.5886 83.6318 137.9365 82.1652 Z" fill="#089de8"/>
		<path d="M 98.0463 68.8942 C 93.5652 67.0146 88.6162 64.8361 84.1493 63.0134 C 82.8589 62.6573 81.5967 62.3298 80.3203 61.9739 C 78.7888 60.9344 77.2999 57.4601 76.4917 55.7371 C 75.6833 55.6375 74.875 55.5093 74.0526 55.381 C 74.1802 52.7184 75.8394 52.5902 76.4917 50.5541 C 77.0588 48.7456 76.5483 46.4104 77.4561 44.7587 C 78.0942 43.6052 79.5264 43.5911 80.2212 42.5942 C 80.8735 41.6973 81.2988 40.1309 81.4973 39.0201 C 81.8662 37.0266 82.1781 34.2643 81.2279 32.2708 C 80.6748 31.1174 80.3346 31.0178 80.1646 29.608 C 79.9944 27.9279 80.6606 22.4172 80.6892 21.2354 C 80.76 18.1597 80.6892 17.9033 79.9376 14.8988 C 79.9376 14.8988 79.0159 12.1792 77.5977 11.3534 L 74.7617 10.8549 L 73.0032 9.2317 C 65.927 4.8887 58.3263 7.9358 54.2563 9.5876 C 48.3997 11.4814 44.6843 17.2057 47.2795 29.4229 C 47.7191 31.5161 46.1309 32.4275 46.2444 33.5808 C 46.4713 36.0728 46.5278 42.0673 48.896 43.5341 C 49.1086 43.6622 50.7821 44.0892 50.7821 43.9612 L 51.4769 51.2375 C 52.0583 52.8466 53.4907 53.0315 53.8877 55.2957 L 52.0725 55.7371 C 51.2643 57.4601 49.7753 60.9202 48.2439 61.9739 C 46.9675 62.3298 45.7056 62.6716 44.4292 63.0134 C 39.9481 64.8361 34.999 67.0146 30.5178 68.8942 C 26.4481 70.6172 21.5558 71.2294 20.0809 75.4869 C 20.0809 78.3776 19.8116 85.2124 19.8826 89 L 58.8651 89 L 61.7153 69.5349 L 59.333 64.5227 L 64.8208 61.9027 L 69.4438 64.4658 L 66.9055 69.6202 L 71.415 88.9857 L 108.6676 88.9857 C 108.7385 85.1981 108.469 78.3776 108.469 75.4727 C 106.9943 71.2294 102.1301 70.6172 98.0463 68.8942 Z" fill="#043877"/>
	</g>
</svg>