<?xml version="1.0" standalone="no"?>
<!-- Generator: Adobe Fireworks 10, Export SVG Extension by Aaron Beall (http://fireworks.abeall.com) . Version: 0.6.1  -->
<!DOCTYPE svg PUBLIC "-//W3C//DTD SVG 1.1//EN" "http://www.w3.org/Graphics/SVG/1.1/DTD/svg11.dtd">
<svg id="Untitled-P%E1gina%201" viewBox="0 0 91 90" style="background-color:#ffffff00" version="1.1"
	xmlns="http://www.w3.org/2000/svg" xmlns:xlink="http://www.w3.org/1999/xlink" xml:space="preserve"
	x="0px" y="0px" width="91px" height="90px"
>
	<g>
		<path d="M 45 18.2952 C 50.1856 18.2952 54.4045 14.0795 54.4045 8.8976 C 54.4045 3.7157 50.1856 -0.5 45 -0.5 C 39.8144 -0.5 35.5955 3.7157 35.5955 8.8976 C 35.5955 14.0795 39.8144 18.2952 45 18.2952 L 45 18.2952 Z" fill="#089de8"/>
		<path d="M 61.0302 47.123 L 61.0302 30.71 C 61.0302 27.134 58.7303 23.9626 55.3293 22.8494 L 55.3136 22.8442 L 52.6295 22.0212 C 52.2061 21.8912 51.7537 22.1152 51.6015 22.5325 L 45.9574 38.0073 C 45.6317 38.9 44.3683 38.9 44.0426 38.0073 L 38.3985 22.5325 C 38.2757 22.1954 37.9572 21.9839 37.6161 21.9839 C 37.5352 21.9839 34.6895 22.843 34.6895 22.843 C 31.2605 23.9849 28.9698 27.1611 28.9698 30.7527 L 28.9698 47.1227 C 28.9698 47.2852 29.0174 47.4442 29.1066 47.5801 L 34.9957 56.5355 L 34.9957 79.1952 C 34.9957 79.6552 35.369 80.0282 35.8294 80.0282 L 54.17 80.0282 C 54.6304 80.0282 55.0037 79.6552 55.0037 79.1952 L 55.0037 56.5355 L 60.8929 47.5801 C 60.9826 47.4442 61.0302 47.2854 61.0302 47.123 L 61.0302 47.123 Z" fill="#089de8"/>
		<path d="M 15.7892 73.15 C 16.3827 71.7999 15.7683 70.2251 14.4176 69.6321 C 13.0651 69.038 11.4903 69.6531 10.8972 71.0028 L 6.7263 80.4928 C 6.1328 81.8428 6.7472 83.4176 8.0978 84.0106 L 17.5948 88.1785 C 17.9445 88.3318 18.309 88.4045 18.6677 88.4045 C 19.6957 88.4045 20.6755 87.8085 21.1152 86.8076 C 21.7087 85.4576 21.0943 83.8827 19.7437 83.2897 L 16.1519 81.7136 L 32.0345 75.5294 L 32.0345 69.7991 L 14.212 76.7388 L 15.7892 73.15 L 15.7892 73.15 Z" fill="#043877"/>
		<path d="M 20.4287 50.889 C 21.8036 50.3539 22.4838 48.806 21.948 47.4324 C 21.4121 46.0581 19.8628 45.3773 18.4888 45.9142 L 8.8241 49.6776 C 7.4492 50.2128 6.769 51.7606 7.3048 53.1343 L 11.071 62.7919 C 11.4825 63.8473 12.4916 64.493 13.5609 64.493 C 13.8836 64.493 14.2117 64.4346 14.5301 64.3103 C 15.9051 63.7753 16.5853 62.2272 16.0494 60.8536 L 14.6251 57.2015 L 32.0345 64.8418 L 32.0345 59.0103 L 16.7739 52.313 L 20.4287 50.889 L 20.4287 50.889 Z" fill="#043877"/>
		<path d="M 78.9294 72.4397 C 78.3935 71.0654 76.8445 70.3845 75.4702 70.9215 C 74.0952 71.4567 73.415 73.0045 73.9509 74.3782 L 75.3753 78.0306 L 57.9658 70.3903 L 57.9658 76.2219 L 73.2264 82.9191 L 69.5716 84.342 C 68.1967 84.8773 67.5165 86.4252 68.0523 87.7988 C 68.4638 88.8542 69.4731 89.5002 70.5423 89.5 C 70.865 89.5 71.1931 89.4415 71.5115 89.3173 L 81.1762 85.554 C 82.5511 85.0188 83.2313 83.4709 82.6954 82.0973 L 78.9294 72.4397 L 78.9294 72.4397 Z" fill="#043877"/>
		<path d="M 81.9022 51.2202 L 72.4052 47.0525 C 71.0527 46.4589 69.4782 47.0734 68.8848 48.4231 C 68.2913 49.7727 68.9057 51.3479 70.2563 51.9409 L 73.8481 53.517 L 57.9655 59.7012 L 57.9655 65.4319 L 75.788 58.4917 L 74.2107 62.0807 C 73.6173 63.4305 74.2317 65.0055 75.5824 65.5985 C 75.932 65.7518 76.2965 65.8246 76.6553 65.8246 C 77.6833 65.8246 78.6631 65.2285 79.1028 64.2275 L 83.2737 54.7375 C 83.8672 53.3885 83.2528 51.8134 81.9022 51.2202 L 81.9022 51.2202 Z" fill="#043877"/>
		<path d="M 47.1434 22.3248 C 46.9169 22.0782 46.5854 21.954 46.25 21.954 L 43.7497 21.954 C 43.4146 21.954 43.0831 22.0782 42.8563 22.3248 C 42.5054 22.707 42.4545 23.2588 42.7035 23.6903 L 44.0399 25.7036 L 43.4143 30.9779 L 44.6464 34.2531 C 44.7664 34.5824 45.2326 34.5824 45.353 34.2531 L 46.5851 30.9779 L 45.9595 25.7036 L 47.2959 23.6903 C 47.5452 23.2588 47.4942 22.707 47.1434 22.3248 L 47.1434 22.3248 Z" fill="#089de8"/>
	</g>
</svg>