<?xml version="1.0" standalone="no"?>
<!-- Generator: Adobe Fireworks 10, Export SVG Extension by Aaron Beall (http://fireworks.abeall.com) . Version: 0.6.1  -->
<!DOCTYPE svg PUBLIC "-//W3C//DTD SVG 1.1//EN" "http://www.w3.org/Graphics/SVG/1.1/DTD/svg11.dtd">
<svg id="Untitled-P%E1gina%201" viewBox="0 0 91 90" style="background-color:#ffffff00" version="1.1"
	xmlns="http://www.w3.org/2000/svg" xmlns:xlink="http://www.w3.org/1999/xlink" xml:space="preserve"
	x="0px" y="0px" width="91px" height="90px"
>
	<g>
		<path d="M 26.5897 16.5986 C 31.9003 16.5986 36.2249 20.9198 36.2249 26.2258 C 36.2249 31.532 31.9003 35.8529 26.5897 35.8529 C 21.2792 35.8529 16.9545 31.532 16.9545 26.2258 C 16.9545 20.9198 21.2791 16.5986 26.5897 16.5986 L 26.5897 16.5986 ZM 5.4743 32.3513 C 5.9526 33.99 6.6165 35.5702 7.456 37.0527 L 5.0643 40.0667 C 4.2833 41.0518 4.3712 42.4563 5.2498 43.344 L 9.3694 47.4601 C 10.2577 48.3478 11.6635 48.4257 12.6494 47.6454 L 15.6464 45.2751 C 17.1888 46.1628 18.8289 46.8553 20.5372 47.343 L 20.9862 51.1958 C 21.1327 52.4443 22.187 53.3807 23.4365 53.3807 L 29.2645 53.3807 C 30.514 53.3807 31.5684 52.4442 31.7148 51.1958 L 32.1443 47.4796 C 33.9796 47.0016 35.7368 46.2896 37.3866 45.3629 L 40.2859 47.6552 C 41.2719 48.4354 42.6776 48.3477 43.5659 47.4697 L 47.6855 43.3536 C 48.5739 42.4661 48.652 41.0615 47.871 40.0764 L 45.616 37.2184 C 46.5532 35.5992 47.2853 33.8728 47.7734 32.0684 L 51.2487 31.6685 C 52.4984 31.5221 53.4354 30.4688 53.4354 29.2202 L 53.4354 23.3971 C 53.4354 22.1487 52.4983 21.0952 51.2487 20.9489 L 47.8222 20.549 C 47.3535 18.764 46.6508 17.0571 45.7527 15.4574 L 47.8614 12.7946 C 48.6423 11.8094 48.5544 10.4048 47.6759 9.5173 L 43.566 5.4109 C 42.6777 4.5233 41.272 4.4452 40.286 5.2256 L 37.6991 7.2738 C 36.02 6.2887 34.2236 5.5377 32.3397 5.0305 L 31.9492 1.6848 C 31.8027 0.4364 30.7484 -0.5 29.4989 -0.5 L 23.6709 -0.5 C 22.4214 -0.5 21.3671 0.4364 21.2206 1.6848 L 20.8301 5.0305 C 18.8972 5.5475 17.0522 6.3278 15.3341 7.3518 L 12.6495 5.2256 C 11.6636 4.4452 10.2578 4.5331 9.3694 5.4109 L 5.2499 9.5271 C 4.3615 10.4147 4.2834 11.8192 5.0644 12.8043 L 7.3097 15.6428 C 6.4116 17.2618 5.7282 18.9884 5.2792 20.7831 L 1.6867 21.1927 C 0.4372 21.3391 -0.5 22.3925 -0.5 23.6409 L -0.5 29.464 C -0.5 30.7125 0.4372 31.7659 1.6867 31.9124 L 5.4743 32.3513 L 5.4743 32.3513 Z" fill="#043877"/>
		<path d="M 69.0841 56.9604 C 64.7498 57.3311 60.9229 54.1024 60.5617 49.7719 C 60.1907 45.441 63.4221 41.6176 67.7563 41.2566 C 72.0907 40.8859 75.9176 44.1145 76.2787 48.4452 C 76.6497 52.7761 73.4183 56.5996 69.0841 56.9604 L 69.0841 56.9604 ZM 84.2054 33.7852 L 81.1304 31.1906 C 80.1835 30.3909 78.7874 30.4298 77.8894 31.2784 L 76.1908 32.8682 C 74.7559 32.1758 73.233 31.6881 71.6612 31.4053 L 71.1831 29.0643 C 70.9391 27.8547 69.8164 27.016 68.5862 27.1134 L 64.574 27.4548 C 63.3439 27.5621 62.3775 28.5668 62.3384 29.8055 L 62.2605 32.1855 C 60.718 32.7415 59.2634 33.5023 57.9357 34.4583 L 55.9053 33.1122 C 54.8704 32.4294 53.494 32.6244 52.6936 33.5706 L 50.0969 36.6626 C 49.2963 37.6088 49.3353 39.0034 50.1846 39.9009 L 51.9613 41.7931 C 51.3462 43.1781 50.907 44.6316 50.6532 46.1238 L 48.1151 46.6407 C 46.9046 46.8845 46.065 48.0062 46.1627 49.2354 L 46.5043 53.2441 C 46.6117 54.4733 47.6172 55.439 48.857 55.4779 L 51.6002 55.5656 C 52.0982 56.8726 52.7522 58.1115 53.5428 59.272 L 52.0103 61.5837 C 51.3269 62.6177 51.5222 63.993 52.469 64.7927 L 55.544 67.3873 C 56.4911 68.1871 57.8869 68.1482 58.7851 67.2994 L 60.7961 65.417 C 62.114 66.0316 63.5002 66.49 64.9254 66.7631 L 65.4819 69.5137 C 65.726 70.7231 66.8486 71.562 68.0787 71.4645 L 72.0909 71.1232 C 73.3209 71.0159 74.2873 70.0112 74.3264 68.7723 L 74.4142 66.0802 C 75.8785 65.5632 77.2647 64.8611 78.5435 63.993 L 80.7596 65.4561 C 81.7944 66.1389 83.1707 65.9437 83.9713 64.9977 L 86.568 61.9252 C 87.3684 60.979 87.3294 59.5841 86.4802 58.6868 L 84.6936 56.7947 C 85.3478 55.4097 85.8262 53.9465 86.0993 52.4443 L 88.5399 51.9469 C 89.7504 51.7031 90.5899 50.5813 90.4923 49.3522 L 90.1506 45.3434 C 90.0432 44.1144 89.0378 43.1488 87.798 43.1097 L 85.3477 43.0317 C 84.8399 41.6075 84.1566 40.2617 83.3074 39.0131 L 84.6447 37.0038 C 85.3477 35.97 85.1524 34.585 84.2054 33.7852 L 84.2054 33.7852 Z" fill="#089de8"/>
		<path d="M 35.4536 64.9586 C 38.9973 64.9977 41.838 67.9142 41.799 71.4548 C 41.76 74.9955 38.841 77.8337 35.2974 77.7949 C 31.7537 77.7559 28.9131 74.8395 28.952 71.2987 C 28.9912 67.7582 31.91 64.9197 35.4536 64.9586 L 35.4536 64.9586 ZM 19.5122 67.7483 C 18.2821 67.8751 17.3352 68.9089 17.3255 70.1478 L 17.2962 72.6155 C 17.2767 73.8542 18.1943 74.9077 19.4243 75.0638 L 21.2401 75.298 C 21.5427 76.4001 21.9722 77.4536 22.5287 78.4485 L 21.3572 79.8921 C 20.5763 80.8577 20.6348 82.2428 21.5036 83.1304 L 23.2315 84.8958 C 24.1004 85.7834 25.4866 85.8809 26.4725 85.1202 L 27.927 83.9985 C 28.952 84.6033 30.0357 85.0813 31.168 85.4128 L 31.3633 87.2855 C 31.4902 88.5146 32.5249 89.4607 33.7647 89.4705 L 36.2346 89.4998 C 37.4743 89.5193 38.5287 88.6024 38.6849 87.3733 L 38.9094 85.5981 C 40.1396 85.2957 41.311 84.8373 42.4238 84.2325 L 43.7905 85.3347 C 44.7569 86.1151 46.1432 86.0565 47.0316 85.1885 L 48.7985 83.462 C 49.6869 82.5941 49.7845 81.2089 49.0232 80.2236 L 47.9784 78.8678 C 48.6227 77.7949 49.1207 76.6536 49.4623 75.454 L 51.0829 75.2882 C 52.3129 75.1614 53.2597 74.1274 53.2696 72.8887 L 53.2987 70.4208 C 53.3184 69.1823 52.4007 68.1287 51.1707 67.9727 L 49.5892 67.7677 C 49.2865 66.5778 48.8376 65.4268 48.2519 64.3539 L 49.2378 63.1444 C 50.0188 62.1787 49.9602 60.7937 49.0914 59.9061 L 47.3636 58.1405 C 46.4948 57.2529 45.1084 57.1553 44.1225 57.9163 L 42.9412 58.8235 C 41.8284 58.1504 40.6373 57.6334 39.3879 57.2822 L 39.2316 55.751 C 39.1047 54.5219 38.07 53.5758 36.8301 53.566 L 34.3603 53.5367 C 33.1205 53.5172 32.0662 54.4341 31.9099 55.6631 L 31.7147 57.1848 C 30.4262 57.5164 29.1864 58.0237 28.0345 58.6868 L 26.8142 57.6919 C 25.8477 56.9116 24.4614 56.9703 23.5731 57.8383 L 21.7964 59.5746 C 20.9081 60.4425 20.8104 61.8276 21.5719 62.8127 L 22.6164 64.1588 C 22.0112 65.2318 21.5328 66.3728 21.2205 67.5728 L 19.5122 67.7483 L 19.5122 67.7483 Z" fill="#043877"/>
	</g>
</svg>