<?xml version="1.0" standalone="no"?>
<!-- Generator: Adobe Fireworks 10, Export SVG Extension by Aaron Beall (http://fireworks.abeall.com) . Version: 0.6.1  -->
<!DOCTYPE svg PUBLIC "-//W3C//DTD SVG 1.1//EN" "http://www.w3.org/Graphics/SVG/1.1/DTD/svg11.dtd">
<svg id="Untitled-P%E1gina%201" viewBox="0 0 91 90" style="background-color:#ffffff00" version="1.1"
	xmlns="http://www.w3.org/2000/svg" xmlns:xlink="http://www.w3.org/1999/xlink" xml:space="preserve"
	x="0px" y="0px" width="91px" height="90px"
>
	<g id="Capa%201">
		<g>
			<g>
				<path d="M 41.0974 90 C 63.7911 90 82.1948 71.8903 82.1948 49.5388 C 82.1948 42.6643 80.4585 36.1919 77.3851 30.524 C 77.0508 30.5699 76.7073 30.5881 76.3729 30.5881 C 76.1779 30.5881 75.9829 30.579 75.7787 30.5699 L 70.5509 30.1768 L 66.7904 33.8792 C 69.6595 38.4316 71.3218 43.798 71.3218 49.5388 C 71.3123 65.9574 57.7834 79.2769 41.1067 79.2769 C 24.4302 79.2769 10.8918 65.9574 10.8918 49.5388 C 10.8918 33.1113 24.4208 19.8009 41.0974 19.8009 C 46.938 19.8009 52.3887 21.4373 57.0035 24.2621 L 60.4113 20.9071 L 59.947 15.0015 C 59.9098 14.5262 59.9191 14.0599 59.9656 13.5938 C 54.3201 10.7141 47.8947 9.0776 41.0883 9.0776 C 18.3944 9.0776 0 27.1964 0 49.5388 C 0 71.8811 18.3944 90 41.0974 90 L 41.0974 90 Z" fill="#089de8"/>
				<path d="M 41.0974 39.0807 C 41.3667 39.0807 41.6362 39.0898 41.9052 39.1082 L 49.4915 31.6394 L 49.6588 31.475 C 47.0587 30.2775 44.1617 29.6008 41.0974 29.6008 C 29.9178 29.6008 20.8645 38.5139 20.8645 49.5205 C 20.8645 60.5272 29.9178 69.4493 41.0974 69.4493 C 52.2771 69.4493 61.3213 60.5363 61.3213 49.5388 C 61.3213 46.5221 60.6434 43.6699 59.4177 41.1193 L 59.2506 41.2839 L 51.6736 48.7435 C 51.6921 49.0087 51.7014 49.2738 51.7014 49.5388 C 51.7014 55.3073 46.9567 59.9969 41.0789 59.9969 C 35.2106 59.9969 30.4657 55.3164 30.4657 49.5388 C 30.4749 43.7704 35.2384 39.0807 41.0974 39.0807 L 41.0974 39.0807 Z" fill="#043877"/>
				<path d="M 83.4485 13.4657 L 85.8813 11.0706 C 86.9954 9.9735 86.9954 8.2092 85.8813 7.1122 L 84.1912 5.4392 C 83.6342 4.8909 82.9099 4.6166 82.1857 4.6166 C 81.4613 4.6166 80.7278 4.8909 80.1799 5.4392 L 77.3851 8.191 L 76.8093 0.8684 C 76.7723 0.3291 76.3173 0 75.8529 0 C 75.6116 0 75.37 0.0822 75.1843 0.2743 L 64.1997 11.0798 C 63.2155 12.0488 62.7047 13.4017 62.8069 14.782 L 62.8347 15.2026 L 63.364 21.9767 L 59.3992 25.8894 L 52.2494 32.9283 L 52.0823 33.093 L 45.1646 39.9036 L 42.0909 42.9296 C 41.6919 43.3226 41.441 43.8528 41.4039 44.4104 L 41.2089 46.7781 C 41.0974 48.1583 42.2023 49.3286 43.5952 49.3286 C 43.6324 49.3286 43.6694 49.3286 43.7159 49.3286 L 46.2601 49.2098 C 46.8545 49.1823 47.4208 48.9355 47.8295 48.524 L 50.8657 45.5348 L 57.7834 38.7242 L 57.9504 38.5597 L 65.1003 31.5205 L 69.4183 27.2697 L 75.6952 27.745 L 75.9736 27.7633 C 76.0942 27.7726 76.2244 27.7726 76.3358 27.7726 C 77.5986 27.7726 78.8242 27.2788 79.7341 26.3921 L 90.719 15.5774 C 91.2947 15.0107 90.9326 14.0325 90.1154 13.9684 L 83.4485 13.4657 L 83.4485 13.4657 Z" fill="#089de8"/>
			</g>
		</g>
		<g id="66027" visibility="hidden">
			<path d="M 60.3033 63.4084 C 60.246 63.4084 60.1884 63.4084 60.1311 63.4084 L 56.3435 63.2646 L 53.5315 65.8116 C 52.6515 66.6062 51.5134 67.0466 50.3275 67.0466 C 49.7058 67.0466 49.0936 66.932 48.5197 66.6924 L 45.0095 65.2563 L 41.4994 66.6924 C 40.9257 66.932 40.3135 67.0466 39.6919 67.0466 C 38.5059 67.0466 37.3676 66.6062 36.4877 65.8116 L 33.6757 63.2646 L 29.8882 63.4084 C 29.8308 63.4084 29.7733 63.4084 29.7161 63.4084 C 27.937 63.4084 26.3208 62.432 25.4885 60.8521 L 23.719 57.4913 L 23.5756 57.4435 L 23.5756 87.0953 C 23.5756 88.8762 25.4503 90.0342 27.0378 89.2303 L 43.9481 80.7283 C 44.6271 80.3932 45.421 80.3932 46.0999 80.7283 L 62.9811 89.2401 C 64.5691 90.0438 66.4437 88.8856 66.4437 87.1047 L 66.4437 57.4532 L 66.3003 57.5011 L 64.5309 60.8618 C 63.7079 62.432 62.0822 63.4084 60.3033 63.4084 L 60.3033 63.4084 Z" fill="#043877"/>
			<path d="M 68.1364 41.8661 C 67.6486 43.0054 67.094 44.1064 66.453 45.1597 C 65.4199 46.8542 64.1863 48.4341 62.761 49.8512 C 60.4561 52.1587 57.7686 53.9683 54.7845 55.2318 C 51.6855 56.5437 48.3954 57.204 45.0095 57.204 C 41.6237 57.204 38.3334 56.5437 35.2346 55.2318 C 32.241 53.9683 29.5627 52.1584 27.2578 49.8512 C 25.8329 48.4247 24.5989 46.8542 23.5659 45.1597 C 22.925 44.1068 22.3607 43.0153 21.8826 41.8661 C 20.5723 38.7642 19.9124 35.4707 19.9124 32.0814 C 19.9124 28.6921 20.5723 25.3986 21.8826 22.2964 C 23.145 19.2997 24.9529 16.6187 27.2577 14.3114 C 29.5625 12.004 32.2504 10.1947 35.2344 8.9307 C 38.3331 7.619 41.6237 6.9583 45.0093 6.9583 C 48.3951 6.9583 51.6855 7.619 54.7844 8.9307 C 57.778 10.1947 60.4561 12.004 62.761 14.3114 C 65.066 16.6187 66.8737 19.3092 68.1362 22.2964 C 69.4467 25.3986 70.1066 28.6921 70.1066 32.0814 C 70.1068 35.4707 69.4467 38.7642 68.1364 41.8661 L 68.1364 41.8661 ZM 77.634 33.3546 C 78.1219 32.5792 78.1219 31.593 77.634 30.8081 L 75.616 27.5909 C 75.281 27.0643 75.1759 26.423 75.3002 25.8196 L 76.1035 22.1049 C 76.2949 21.205 75.9602 20.2761 75.2332 19.7112 L 72.2394 17.3849 C 71.7518 17.0017 71.4266 16.4464 71.3406 15.8241 L 70.8145 12.0616 C 70.6901 11.152 70.0493 10.3956 69.1788 10.1083 L 65.573 8.9402 C 64.9802 8.7488 64.4827 8.3275 64.1958 7.7819 L 62.4264 4.4214 C 62.0151 3.6361 61.1925 3.1478 60.3125 3.1478 C 60.2838 3.1478 60.2552 3.1478 60.2266 3.1478 L 56.439 3.2916 C 56.4103 3.2916 56.3815 3.2916 56.3529 3.2916 C 55.7598 3.2916 55.1862 3.071 54.7461 2.6692 L 51.9341 0.1223 C 51.4845 -0.2798 50.9106 -0.5 50.3273 -0.5 C 50.0214 -0.5 49.7153 -0.4425 49.4282 -0.3182 L 45.9182 1.1182 C 45.6312 1.2329 45.3252 1.3 45.019 1.3 C 44.7131 1.3 44.407 1.2424 44.1201 1.1182 L 40.6101 -0.3182 C 40.3134 -0.4331 40.0073 -0.5 39.7108 -0.5 C 39.1274 -0.5 38.5536 -0.2894 38.1041 0.1223 L 35.292 2.6692 C 34.8522 3.071 34.2783 3.2916 33.6853 3.2916 C 33.6565 3.2916 33.6278 3.2916 33.5991 3.2916 L 29.8116 3.1478 C 29.7831 3.1478 29.754 3.1478 29.7257 3.1478 C 28.8455 3.1478 28.0231 3.6361 27.6118 4.4214 L 25.8425 7.7819 C 25.5554 8.3369 25.0581 8.7488 24.4652 8.9402 L 20.8595 10.1083 C 19.989 10.386 19.3484 11.152 19.2239 12.0616 L 18.6978 15.8241 C 18.6118 16.4464 18.2864 17.0017 17.7988 17.3849 L 14.7668 19.7112 C 14.0398 20.2761 13.7051 21.205 13.8962 22.1049 L 14.6997 25.8196 C 14.8337 26.4326 14.719 27.0643 14.384 27.5909 L 12.366 30.8081 C 11.8781 31.5836 11.8781 32.5697 12.366 33.3546 L 14.384 36.5718 C 14.719 37.0984 14.824 37.7395 14.6997 38.3428 L 13.8962 42.0579 C 13.7051 42.9575 14.0398 43.8864 14.7668 44.4515 L 17.7605 46.7781 C 18.2483 47.161 18.5735 47.7162 18.6597 48.3386 L 19.1858 52.1011 C 19.3101 53.0107 19.9508 53.7671 20.8213 54.0542 L 23.5566 54.9352 L 24.4366 55.2224 C 25.0295 55.4138 25.5269 55.8352 25.8137 56.3809 L 27.5833 59.7415 C 27.9944 60.5266 28.817 61.015 29.6969 61.015 C 29.7258 61.015 29.7542 61.015 29.7831 61.015 L 33.5707 60.8712 C 33.5994 60.8712 33.6281 60.8712 33.6566 60.8712 C 34.2496 60.8712 34.8234 61.0918 35.2635 61.4938 L 38.0753 64.0403 C 38.5249 64.4427 39.0986 64.6627 39.6824 64.6627 C 39.9883 64.6627 40.2944 64.6052 40.5811 64.481 L 44.0914 63.0447 C 44.3784 62.9298 44.6844 62.8632 44.9905 62.8632 C 45.2965 62.8632 45.6025 62.9204 45.8894 63.0447 L 49.3998 64.481 C 49.696 64.5957 50.0021 64.6627 50.2986 64.6627 C 50.8822 64.6627 51.4562 64.4521 51.9056 64.0403 L 54.7174 61.4938 C 55.1572 61.0918 55.7313 60.8712 56.3245 60.8712 C 56.353 60.8712 56.3816 60.8712 56.4104 60.8712 L 60.198 61.015 C 60.2268 61.015 60.2552 61.015 60.2839 61.015 C 61.1639 61.015 61.9863 60.5266 62.3979 59.7415 L 64.1671 56.3809 C 64.4541 55.8254 64.9513 55.4138 65.5443 55.2224 L 66.4243 54.9352 L 69.1597 54.0542 C 70.0303 53.7767 70.6711 53.0107 70.7954 52.1011 L 71.3214 48.3386 C 71.4073 47.7162 71.7328 47.161 72.2203 46.7781 L 75.2141 44.4515 C 75.9413 43.8864 76.2758 42.9575 76.0846 42.0579 L 75.2811 38.3428 C 75.1475 37.7303 75.2621 37.0984 75.5968 36.5718 L 77.634 33.3546 L 77.634 33.3546 Z" fill="#089de8"/>
			<path d="M 54.8992 42.3929 C 55.3297 44.4131 53.1776 45.9927 51.3795 44.9684 L 45 41.3494 L 38.611 44.9684 C 36.8224 45.9833 34.6606 44.4036 35.0913 42.3929 L 36.6213 35.174 L 31.6289 30.6642 L 31.0741 30.157 C 29.5533 28.7782 30.3568 26.2506 32.3844 26.0017 L 39.6533 25.1111 L 42.8192 18.3231 C 43.6802 16.4849 46.2914 16.4849 47.152 18.3231 L 50.3179 25.1111 L 57.5869 26.0017 C 59.6243 26.2506 60.418 28.7782 58.8972 30.157 L 58.3425 30.6642 L 53.3499 35.174 L 54.8992 42.3929 L 54.8992 42.3929 ZM 45 9.8212 C 32.719 9.8212 22.7626 19.7877 22.7626 32.0814 C 22.7626 34.1206 23.0399 36.1024 23.5564 37.9792 C 26.1389 47.4098 34.766 54.3417 45 54.3417 C 55.234 54.3417 63.861 47.4099 66.4436 37.9792 C 66.96 36.1024 67.2374 34.1206 67.2374 32.0814 C 67.2374 19.7877 57.2809 9.8212 45 9.8212 L 45 9.8212 Z" fill="#089de8"/>
		</g>
		<g visibility="hidden">
			<path d="M 59.1667 5.125 L 53.0126 5.125 C 51.8455 1.8512 48.6947 -0.5 45 -0.5 C 41.3053 -0.5 38.1545 1.8512 36.9817 5.125 L 30.8333 5.125 C 29.2693 5.125 28 6.385 28 7.9375 L 28 19.1875 C 28 20.74 29.2693 22 30.8333 22 L 59.1667 22 C 60.7307 22 62 20.74 62 19.1875 L 62 7.9375 C 62 6.385 60.7307 5.125 59.1667 5.125 L 59.1667 5.125 Z" fill="#043877"/>
			<path d="M 64.8333 44.5 L 53.5 44.5 C 51.936 44.5 50.6667 43.24 50.6667 41.6875 C 50.6667 40.135 51.936 38.875 53.5 38.875 L 64.8333 38.875 C 66.3973 38.875 67.6667 40.135 67.6667 41.6875 C 67.6667 43.24 66.3973 44.5 64.8333 44.5 L 64.8333 44.5 ZM 64.8333 67 L 53.5 67 C 51.936 67 50.6667 65.74 50.6667 64.1875 C 50.6667 62.635 51.936 61.375 53.5 61.375 L 64.8333 61.375 C 66.3973 61.375 67.6667 62.635 67.6667 64.1875 C 67.6667 65.74 66.3973 67 64.8333 67 L 64.8333 67 ZM 44.1726 38.0537 L 32.8394 49.3037 C 32.2841 49.8494 31.5587 50.125 30.8333 50.125 C 30.108 50.125 29.3826 49.8494 28.8273 49.3037 L 23.1606 43.6787 C 22.0557 42.5819 22.0557 40.7988 23.1606 39.7018 C 24.2656 38.605 26.062 38.605 27.167 39.7018 L 30.8333 43.3356 L 40.1606 34.0768 C 41.2656 32.98 43.062 32.98 44.1671 34.0768 C 45.272 35.1738 45.2776 36.9512 44.1726 38.0537 L 44.1726 38.0537 ZM 44.1726 60.5537 L 32.8394 71.8037 C 32.2841 72.3494 31.5587 72.625 30.8333 72.625 C 30.108 72.625 29.3826 72.3494 28.8273 71.8037 L 23.1606 66.1787 C 22.0557 65.0819 22.0557 63.2988 23.1606 62.2018 C 24.2656 61.105 26.062 61.105 27.167 62.2018 L 30.8333 65.8356 L 40.1606 56.5768 C 41.2656 55.48 43.062 55.48 44.1671 56.5768 C 45.272 57.6738 45.2776 59.4512 44.1726 60.5537 L 44.1726 60.5537 ZM 73.3333 10.75 L 67.6667 10.75 L 67.6667 19.1875 C 67.6667 23.8394 63.853 27.625 59.1667 27.625 L 30.8333 27.625 C 26.147 27.625 22.3334 23.8394 22.3334 19.1875 L 22.3334 10.75 L 16.6666 10.75 C 13.5444 10.75 11 13.2756 11 16.375 L 11 83.875 C 11 87.0305 13.4877 89.5 16.6666 89.5 L 73.3333 89.5 C 76.5122 89.5 79 87.0305 79 83.875 L 79 16.375 C 79 13.2195 76.5122 10.75 73.3333 10.75 L 73.3333 10.75 Z" fill="#089de8"/>
		</g>
		<g visibility="hidden">
			<path d="M 45 18.2952 C 50.1856 18.2952 54.4045 14.0795 54.4045 8.8976 C 54.4045 3.7157 50.1856 -0.5 45 -0.5 C 39.8144 -0.5 35.5955 3.7157 35.5955 8.8976 C 35.5955 14.0795 39.8144 18.2952 45 18.2952 L 45 18.2952 Z" fill="#089de8"/>
			<path d="M 61.0302 47.123 L 61.0302 30.71 C 61.0302 27.134 58.7303 23.9626 55.3293 22.8494 L 55.3136 22.8442 L 52.6295 22.0212 C 52.2061 21.8912 51.7537 22.1152 51.6015 22.5325 L 45.9574 38.0073 C 45.6317 38.9 44.3683 38.9 44.0426 38.0073 L 38.3985 22.5325 C 38.2757 22.1954 37.9572 21.9839 37.6161 21.9839 C 37.5352 21.9839 34.6895 22.843 34.6895 22.843 C 31.2605 23.9849 28.9698 27.1611 28.9698 30.7527 L 28.9698 47.1227 C 28.9698 47.2852 29.0174 47.4442 29.1066 47.5801 L 34.9957 56.5355 L 34.9957 79.1952 C 34.9957 79.6552 35.369 80.0282 35.8294 80.0282 L 54.17 80.0282 C 54.6304 80.0282 55.0037 79.6552 55.0037 79.1952 L 55.0037 56.5355 L 60.8929 47.5801 C 60.9826 47.4442 61.0302 47.2854 61.0302 47.123 L 61.0302 47.123 Z" fill="#089de8"/>
			<path d="M 15.7892 73.15 C 16.3827 71.7999 15.7683 70.2251 14.4176 69.6321 C 13.0651 69.038 11.4903 69.6531 10.8972 71.0028 L 6.7263 80.4928 C 6.1328 81.8428 6.7472 83.4176 8.0978 84.0106 L 17.5948 88.1785 C 17.9445 88.3318 18.309 88.4045 18.6677 88.4045 C 19.6957 88.4045 20.6755 87.8085 21.1152 86.8076 C 21.7087 85.4576 21.0943 83.8827 19.7437 83.2897 L 16.1519 81.7136 L 32.0345 75.5294 L 32.0345 69.7991 L 14.212 76.7388 L 15.7892 73.15 L 15.7892 73.15 Z" fill="#043877"/>
			<path d="M 20.4287 50.889 C 21.8036 50.3539 22.4838 48.806 21.948 47.4324 C 21.4121 46.0581 19.8628 45.3773 18.4888 45.9142 L 8.8241 49.6776 C 7.4492 50.2128 6.769 51.7606 7.3048 53.1343 L 11.071 62.7919 C 11.4825 63.8473 12.4916 64.493 13.5609 64.493 C 13.8836 64.493 14.2117 64.4346 14.5301 64.3103 C 15.9051 63.7753 16.5853 62.2272 16.0494 60.8536 L 14.6251 57.2015 L 32.0345 64.8418 L 32.0345 59.0103 L 16.7739 52.313 L 20.4287 50.889 L 20.4287 50.889 Z" fill="#043877"/>
			<path d="M 78.9294 72.4397 C 78.3935 71.0654 76.8445 70.3845 75.4702 70.9215 C 74.0952 71.4567 73.415 73.0045 73.9509 74.3782 L 75.3753 78.0306 L 57.9658 70.3903 L 57.9658 76.2219 L 73.2264 82.9191 L 69.5716 84.342 C 68.1967 84.8773 67.5165 86.4252 68.0523 87.7988 C 68.4638 88.8542 69.4731 89.5002 70.5423 89.5 C 70.865 89.5 71.1931 89.4415 71.5115 89.3173 L 81.1762 85.554 C 82.5511 85.0188 83.2313 83.4709 82.6954 82.0973 L 78.9294 72.4397 L 78.9294 72.4397 Z" fill="#043877"/>
			<path d="M 81.9022 51.2202 L 72.4052 47.0525 C 71.0527 46.4589 69.4782 47.0734 68.8848 48.4231 C 68.2913 49.7727 68.9057 51.3479 70.2563 51.9409 L 73.8481 53.517 L 57.9655 59.7012 L 57.9655 65.4319 L 75.788 58.4917 L 74.2107 62.0807 C 73.6173 63.4305 74.2317 65.0055 75.5824 65.5985 C 75.932 65.7518 76.2965 65.8246 76.6553 65.8246 C 77.6833 65.8246 78.6631 65.2285 79.1028 64.2275 L 83.2737 54.7375 C 83.8672 53.3885 83.2528 51.8134 81.9022 51.2202 L 81.9022 51.2202 Z" fill="#043877"/>
			<path d="M 47.1434 22.3248 C 46.9169 22.0782 46.5854 21.954 46.25 21.954 L 43.7497 21.954 C 43.4146 21.954 43.0831 22.0782 42.8563 22.3248 C 42.5054 22.707 42.4545 23.2588 42.7035 23.6903 L 44.0399 25.7036 L 43.4143 30.9779 L 44.6464 34.2531 C 44.7664 34.5824 45.2326 34.5824 45.353 34.2531 L 46.5851 30.9779 L 45.9595 25.7036 L 47.2959 23.6903 C 47.5452 23.2588 47.4942 22.707 47.1434 22.3248 L 47.1434 22.3248 Z" fill="#089de8"/>
		</g>
		<g visibility="hidden">
			<path d="M 13.7974 18.2495 C 14.7993 19.0092 16.2306 18.8177 16.9953 17.8226 C 23.7252 9.0598 33.9323 4.0348 44.9999 4.0348 C 56.0674 4.0348 66.2745 9.0602 73.0044 17.8226 C 73.4535 18.4073 74.1326 18.7142 74.8198 18.7142 C 75.3022 18.7142 75.7892 18.5627 76.2024 18.2495 C 77.2037 17.4894 77.3958 16.0668 76.6316 15.0712 C 69.0311 5.1754 57.5018 -0.5 44.9999 -0.5 C 32.4979 -0.5 20.9687 5.1754 13.3683 15.0712 C 12.6039 16.0668 12.7959 17.4894 13.7974 18.2495 L 13.7974 18.2495 Z" fill="#089de8"/>
			<path d="M 69.2521 30.3444 C 69.2521 34.2488 72.4489 37.4258 76.3778 37.4258 C 80.3066 37.4258 83.5032 34.2488 83.5032 30.3444 C 83.5032 26.4397 80.3066 23.2628 76.3778 23.2628 C 72.4489 23.2628 69.2521 26.4395 69.2521 30.3444 L 69.2521 30.3444 Z" fill="#089de8"/>
			<path d="M 83.67 39.7758 C 83.6536 39.7701 81.8583 39.2228 81.8583 39.2228 C 81.2081 39.0255 80.5021 39.147 79.9578 39.5519 L 76.3778 42.2158 L 72.7977 39.5519 C 72.2529 39.1467 71.5466 39.0251 70.8972 39.2228 C 70.8972 39.2228 69.1017 39.7701 69.0853 39.7758 C 66.1965 40.7329 64.2557 43.4092 64.2557 46.4352 L 64.2557 57.141 C 64.2557 57.5538 64.3771 57.9579 64.6057 58.3026 L 68.2183 63.7667 L 68.2183 78.1157 C 68.2183 79.2844 69.1715 80.2317 70.3477 80.2317 L 82.4081 80.2317 C 83.5841 80.2317 84.5372 79.2844 84.5372 78.1157 L 84.5372 63.7667 L 88.15 58.3026 C 88.3784 57.9576 88.5 57.5535 88.5 57.141 L 88.5 46.4352 C 88.5 43.4092 86.559 40.7329 83.67 39.7758 L 83.67 39.7758 Z" fill="#089de8"/>
			<path d="M 13.622 37.4258 C 17.5509 37.4258 20.7477 34.2488 20.7477 30.3444 C 20.7477 26.4397 17.5509 23.2628 13.622 23.2628 C 9.6931 23.2628 6.496 26.4395 6.496 30.3444 C 6.496 34.2491 9.6929 37.4258 13.622 37.4258 L 13.622 37.4258 Z" fill="#089de8"/>
			<path d="M 20.9144 39.7758 C 20.8979 39.7701 19.1026 39.2228 19.1026 39.2228 C 18.4521 39.0255 17.7466 39.147 17.2021 39.5519 L 13.622 42.2158 L 10.0421 39.5519 C 9.4977 39.1467 8.7909 39.0251 8.1415 39.2228 C 8.1415 39.2228 6.3461 39.7701 6.3296 39.7758 C 3.4408 40.7329 1.5 43.4092 1.5 46.4352 L 1.5 57.141 C 1.5 57.5538 1.6213 57.9579 1.85 58.3026 L 5.4627 63.7667 L 5.4627 78.1157 C 5.4627 79.2844 6.4158 80.2317 7.5919 80.2317 L 19.652 80.2317 C 20.8281 80.2317 21.7813 79.2844 21.7813 78.1157 L 21.7813 63.7667 L 25.394 58.3026 C 25.6223 57.9576 25.7441 57.5535 25.7441 57.141 L 25.7441 46.4352 C 25.7441 43.4092 23.803 40.7329 20.9144 39.7758 L 20.9144 39.7758 Z" fill="#089de8"/>
			<path d="M 54.1906 20.364 C 54.1906 15.3276 50.0675 11.2301 44.9999 11.2301 C 39.9321 11.2301 35.8092 15.3276 35.8092 20.364 C 35.8092 25.4006 39.9321 29.4979 44.9999 29.4979 C 50.0675 29.4979 54.1906 25.4006 54.1906 20.364 L 54.1906 20.364 Z" fill="#043877"/>
			<path d="M 55.0948 33.9244 L 55.0795 33.9197 L 52.4563 33.1196 C 52.0426 32.9933 51.6003 33.2108 51.4515 33.6167 L 45.9357 48.6575 C 45.6174 49.525 44.3828 49.525 44.0643 48.6575 L 38.5485 33.6167 C 38.4282 33.2892 38.1172 33.0836 37.7837 33.0836 C 37.7047 33.0836 34.9236 33.9185 34.9236 33.9185 C 31.5728 35.0282 29.3337 38.1155 29.3337 41.6064 L 29.3337 57.5173 C 29.3337 57.6752 29.3804 57.8297 29.4676 57.9618 L 35.2233 66.6661 L 35.2233 88.6903 C 35.2233 89.1376 35.588 89.5 36.0381 89.5 L 53.9619 89.5 C 54.412 89.5 54.7767 89.1376 54.7767 88.6903 L 54.7767 66.6661 L 60.5323 57.9618 C 60.6196 57.8297 60.6661 57.6752 60.6661 57.5173 L 60.6661 41.5646 C 60.6659 38.0887 58.4183 35.0067 55.0948 33.9244 L 55.0948 33.9244 Z" fill="#043877"/>
			<path d="M 47.155 33.6079 C 46.9271 33.3611 46.594 33.2369 46.2567 33.2369 L 43.7427 33.2369 C 43.4058 33.2369 43.0725 33.3611 42.8445 33.6079 C 42.4916 33.9899 42.4404 34.5419 42.6908 34.9731 L 44.0345 36.9863 L 43.4054 42.2605 L 44.6444 45.5358 C 44.7651 45.8652 45.2336 45.8652 45.3547 45.5358 L 46.5936 42.2605 L 45.9647 36.9863 L 47.3083 34.9731 C 47.5591 34.5419 47.5078 33.9899 47.155 33.6079 L 47.155 33.6079 Z" fill="#043877"/>
		</g>
		<g visibility="hidden">
			<path d="M 26.5897 16.5986 C 31.9003 16.5986 36.2249 20.9198 36.2249 26.2258 C 36.2249 31.532 31.9003 35.8529 26.5897 35.8529 C 21.2792 35.8529 16.9545 31.532 16.9545 26.2258 C 16.9545 20.9198 21.2791 16.5986 26.5897 16.5986 L 26.5897 16.5986 ZM 5.4743 32.3513 C 5.9526 33.99 6.6165 35.5702 7.456 37.0527 L 5.0643 40.0667 C 4.2833 41.0518 4.3712 42.4563 5.2498 43.344 L 9.3694 47.4601 C 10.2577 48.3478 11.6635 48.4257 12.6494 47.6454 L 15.6464 45.2751 C 17.1888 46.1628 18.8289 46.8553 20.5372 47.343 L 20.9862 51.1958 C 21.1327 52.4443 22.187 53.3807 23.4365 53.3807 L 29.2645 53.3807 C 30.514 53.3807 31.5684 52.4442 31.7148 51.1958 L 32.1443 47.4796 C 33.9796 47.0016 35.7368 46.2896 37.3866 45.3629 L 40.2859 47.6552 C 41.2719 48.4354 42.6776 48.3477 43.5659 47.4697 L 47.6855 43.3536 C 48.5739 42.4661 48.652 41.0615 47.871 40.0764 L 45.616 37.2184 C 46.5532 35.5992 47.2853 33.8728 47.7734 32.0684 L 51.2487 31.6685 C 52.4984 31.5221 53.4354 30.4688 53.4354 29.2202 L 53.4354 23.3971 C 53.4354 22.1487 52.4983 21.0952 51.2487 20.9489 L 47.8222 20.549 C 47.3535 18.764 46.6508 17.0571 45.7527 15.4574 L 47.8614 12.7946 C 48.6423 11.8094 48.5544 10.4048 47.6759 9.5173 L 43.566 5.4109 C 42.6777 4.5233 41.272 4.4452 40.286 5.2256 L 37.6991 7.2738 C 36.02 6.2887 34.2236 5.5377 32.3397 5.0305 L 31.9492 1.6848 C 31.8027 0.4364 30.7484 -0.5 29.4989 -0.5 L 23.6709 -0.5 C 22.4214 -0.5 21.3671 0.4364 21.2206 1.6848 L 20.8301 5.0305 C 18.8972 5.5475 17.0522 6.3278 15.3341 7.3518 L 12.6495 5.2256 C 11.6636 4.4452 10.2578 4.5331 9.3694 5.4109 L 5.2499 9.5271 C 4.3615 10.4147 4.2834 11.8192 5.0644 12.8043 L 7.3097 15.6428 C 6.4116 17.2618 5.7282 18.9884 5.2792 20.7831 L 1.6867 21.1927 C 0.4372 21.3391 -0.5 22.3925 -0.5 23.6409 L -0.5 29.464 C -0.5 30.7125 0.4372 31.7659 1.6867 31.9124 L 5.4743 32.3513 L 5.4743 32.3513 Z" fill="#043877"/>
			<path d="M 69.0841 56.9604 C 64.7498 57.3311 60.9229 54.1024 60.5617 49.7719 C 60.1907 45.441 63.4221 41.6176 67.7563 41.2566 C 72.0907 40.8859 75.9176 44.1145 76.2787 48.4452 C 76.6497 52.7761 73.4183 56.5996 69.0841 56.9604 L 69.0841 56.9604 ZM 84.2054 33.7852 L 81.1304 31.1906 C 80.1835 30.3909 78.7874 30.4298 77.8894 31.2784 L 76.1908 32.8682 C 74.7559 32.1758 73.233 31.6881 71.6612 31.4053 L 71.1831 29.0643 C 70.9391 27.8547 69.8164 27.016 68.5862 27.1134 L 64.574 27.4548 C 63.3439 27.5621 62.3775 28.5668 62.3384 29.8055 L 62.2605 32.1855 C 60.718 32.7415 59.2634 33.5023 57.9357 34.4583 L 55.9053 33.1122 C 54.8704 32.4294 53.494 32.6244 52.6936 33.5706 L 50.0969 36.6626 C 49.2963 37.6088 49.3353 39.0034 50.1846 39.9009 L 51.9613 41.7931 C 51.3462 43.1781 50.907 44.6316 50.6532 46.1238 L 48.1151 46.6407 C 46.9046 46.8845 46.065 48.0062 46.1627 49.2354 L 46.5043 53.2441 C 46.6117 54.4733 47.6172 55.439 48.857 55.4779 L 51.6002 55.5656 C 52.0982 56.8726 52.7522 58.1115 53.5428 59.272 L 52.0103 61.5837 C 51.3269 62.6177 51.5222 63.993 52.469 64.7927 L 55.544 67.3873 C 56.4911 68.1871 57.8869 68.1482 58.7851 67.2994 L 60.7961 65.417 C 62.114 66.0316 63.5002 66.49 64.9254 66.7631 L 65.4819 69.5137 C 65.726 70.7231 66.8486 71.562 68.0787 71.4645 L 72.0909 71.1232 C 73.3209 71.0159 74.2873 70.0112 74.3264 68.7723 L 74.4142 66.0802 C 75.8785 65.5632 77.2647 64.8611 78.5435 63.993 L 80.7596 65.4561 C 81.7944 66.1389 83.1707 65.9437 83.9713 64.9977 L 86.568 61.9252 C 87.3684 60.979 87.3294 59.5841 86.4802 58.6868 L 84.6936 56.7947 C 85.3478 55.4097 85.8262 53.9465 86.0993 52.4443 L 88.5399 51.9469 C 89.7504 51.7031 90.5899 50.5813 90.4923 49.3522 L 90.1506 45.3434 C 90.0432 44.1144 89.0378 43.1488 87.798 43.1097 L 85.3477 43.0317 C 84.8399 41.6075 84.1566 40.2617 83.3074 39.0131 L 84.6447 37.0038 C 85.3477 35.97 85.1524 34.585 84.2054 33.7852 L 84.2054 33.7852 Z" fill="#089de8"/>
			<path d="M 35.4536 64.9586 C 38.9973 64.9977 41.838 67.9142 41.799 71.4548 C 41.76 74.9955 38.841 77.8337 35.2974 77.7949 C 31.7537 77.7559 28.9131 74.8395 28.952 71.2987 C 28.9912 67.7582 31.91 64.9197 35.4536 64.9586 L 35.4536 64.9586 ZM 19.5122 67.7483 C 18.2821 67.8751 17.3352 68.9089 17.3255 70.1478 L 17.2962 72.6155 C 17.2767 73.8542 18.1943 74.9077 19.4243 75.0638 L 21.2401 75.298 C 21.5427 76.4001 21.9722 77.4536 22.5287 78.4485 L 21.3572 79.8921 C 20.5763 80.8577 20.6348 82.2428 21.5036 83.1304 L 23.2315 84.8958 C 24.1004 85.7834 25.4866 85.8809 26.4725 85.1202 L 27.927 83.9985 C 28.952 84.6033 30.0357 85.0813 31.168 85.4128 L 31.3633 87.2855 C 31.4902 88.5146 32.5249 89.4607 33.7647 89.4705 L 36.2346 89.4998 C 37.4743 89.5193 38.5287 88.6024 38.6849 87.3733 L 38.9094 85.5981 C 40.1396 85.2957 41.311 84.8373 42.4238 84.2325 L 43.7905 85.3347 C 44.7569 86.1151 46.1432 86.0565 47.0316 85.1885 L 48.7985 83.462 C 49.6869 82.5941 49.7845 81.2089 49.0232 80.2236 L 47.9784 78.8678 C 48.6227 77.7949 49.1207 76.6536 49.4623 75.454 L 51.0829 75.2882 C 52.3129 75.1614 53.2597 74.1274 53.2696 72.8887 L 53.2987 70.4208 C 53.3184 69.1823 52.4007 68.1287 51.1707 67.9727 L 49.5892 67.7677 C 49.2865 66.5778 48.8376 65.4268 48.2519 64.3539 L 49.2378 63.1444 C 50.0188 62.1787 49.9602 60.7937 49.0914 59.9061 L 47.3636 58.1405 C 46.4948 57.2529 45.1084 57.1553 44.1225 57.9163 L 42.9412 58.8235 C 41.8284 58.1504 40.6373 57.6334 39.3879 57.2822 L 39.2316 55.751 C 39.1047 54.5219 38.07 53.5758 36.8301 53.566 L 34.3603 53.5367 C 33.1205 53.5172 32.0662 54.4341 31.9099 55.6631 L 31.7147 57.1848 C 30.4262 57.5164 29.1864 58.0237 28.0345 58.6868 L 26.8142 57.6919 C 25.8477 56.9116 24.4614 56.9703 23.5731 57.8383 L 21.7964 59.5746 C 20.9081 60.4425 20.8104 61.8276 21.5719 62.8127 L 22.6164 64.1588 C 22.0112 65.2318 21.5328 66.3728 21.2205 67.5728 L 19.5122 67.7483 L 19.5122 67.7483 Z" fill="#043877"/>
		</g>
	</g>
</svg>