<?xml version="1.0" standalone="no"?>
<!-- Generator: Adobe Fireworks 10, Export SVG Extension by Aaron Beall (http://fireworks.abeall.com) . Version: 0.6.1  -->
<!DOCTYPE svg PUBLIC "-//W3C//DTD SVG 1.1//EN" "http://www.w3.org/Graphics/SVG/1.1/DTD/svg11.dtd">
<svg id="Untitled-P%E1gina%201" viewBox="0 0 31 35" style="background-color:#ffffff00" version="1.1"
	xmlns="http://www.w3.org/2000/svg" xmlns:xlink="http://www.w3.org/1999/xlink" xml:space="preserve"
	x="0px" y="0px" width="31px" height="35px"
>
	<g>
		<path d="M 31 9.0977 L 31 8.9756 C 31 8.5229 30.7966 7.9897 30.4313 7.6206 L 30.3899 7.5786 C 30.3899 7.5786 30.3484 7.5786 30.3484 7.5371 C 30.2656 7.4531 30.1865 7.415 30.1036 7.3311 C 30.0623 7.3311 30.0623 7.2891 30.0208 7.2891 C 29.938 7.2476 29.8174 7.2056 29.7345 7.1675 C 29.6931 7.1675 29.6931 7.126 29.6516 7.126 C 29.5313 7.084 29.407 7.042 29.2864 7.042 C 29.2449 7.042 29.2449 7.042 29.2035 7.042 C 29.083 7.042 28.9172 7 28.7554 7 L 2.1995 7 C 2.0375 7 1.8755 7 1.71 7.042 C 1.6685 7.042 1.627 7.042 1.5894 7.084 C 1.4688 7.126 1.3445 7.126 1.2654 7.1675 C 1.2241 7.1675 1.2241 7.2095 1.1826 7.2095 C 1.0997 7.251 0.9792 7.293 0.8964 7.3311 L 0.8549 7.373 C 0.772 7.415 0.6929 7.4951 0.6101 7.5371 C 0.5686 7.5786 0.5272 7.6206 0.4895 7.6587 C 0.2034 7.9863 0.0415 8.3594 0 8.7705 C 0 8.8125 0 8.8125 0 8.854 L 0 27.1499 C 0 27.1919 0 27.1919 0 27.2334 C 0.0829 27.8086 0.3652 28.3032 0.772 28.5889 C 1.1375 28.8364 1.5856 29 2.1129 29 L 28.8381 29 C 28.8381 29 28.8381 29 28.8795 29 L 28.8795 29 C 29.0001 29 29.1658 29 29.2864 28.958 C 29.3278 28.958 29.3278 28.958 29.3691 28.958 C 29.4897 28.916 29.614 28.916 29.6931 28.874 L 29.7345 28.874 C 30.6309 28.5469 30.9961 27.7627 30.9961 27.0244 L 30.9961 26.9023 L 30.9961 26.8604 L 30.9961 26.8184 L 30.9961 9.2197 C 30.9961 9.1777 30.9961 9.1777 30.9961 9.1357 C 31 9.1396 31 9.1396 31 9.0977 ZM 28.3975 8.5229 L 15.5847 21.1426 L 12.6545 18.2646 L 12.6545 18.2646 L 2.6062 8.519 L 28.3975 8.519 L 28.3975 8.5229 ZM 1.5103 26.6553 L 1.5103 9.5508 L 10.9861 18.7598 L 1.5103 26.6553 ZM 15.178 27.5156 L 2.8511 27.5156 L 12.0859 19.8672 L 15.0537 22.7871 C 15.1742 22.9092 15.2986 22.9512 15.4189 22.9932 L 15.4604 22.9932 C 15.502 22.9932 15.502 22.9932 15.5432 22.9932 L 15.5432 22.9932 C 15.5847 22.9932 15.6262 22.9932 15.6262 22.9932 L 15.6676 22.9932 C 15.7881 22.9512 15.9539 22.9092 16.033 22.7871 L 18.8387 20.0313 L 28.1113 27.5156 L 15.178 27.5156 L 15.178 27.5156 ZM 29.4935 26.6929 L 19.9762 18.9233 L 29.4935 9.5508 L 29.4935 26.6929 Z" fill="#012244"/>
	</g>
</svg>