<?xml version="1.0" standalone="no"?>
<!-- Generator: Adobe Fireworks 10, Export SVG Extension by Aaron Beall (http://fireworks.abeall.com) . Version: 0.6.1  -->
<!DOCTYPE svg PUBLIC "-//W3C//DTD SVG 1.1//EN" "http://www.w3.org/Graphics/SVG/1.1/DTD/svg11.dtd">
<svg id="Untitled-P%E1gina%201" viewBox="0 0 31 35" style="background-color:#ffffff00" version="1.1"
	xmlns="http://www.w3.org/2000/svg" xmlns:xlink="http://www.w3.org/1999/xlink" xml:space="preserve"
	x="0px" y="0px" width="31px" height="35px"
>
	<g>
		<path d="M 15.5 0 C 9.1589 0 4 5.3286 4 11.8779 C 4 14.5103 5.5002 18.5127 8.7213 24.4751 C 10.9193 28.5435 13.1072 31.9795 13.1995 32.124 L 14.7808 34.6001 C 14.9402 34.8496 15.2103 35 15.5 35 C 15.7897 35 16.0598 34.8496 16.2192 34.6001 L 17.8005 32.124 C 17.892 31.9814 20.0638 28.5752 22.2787 24.4751 C 25.4999 18.5137 27 14.5107 27 11.8779 C 27 5.3286 21.8411 0 15.5 0 ZM 20.7739 23.6074 C 18.5898 27.6504 16.4523 31.0029 16.3622 31.144 L 15.5 32.4941 L 14.6381 31.1445 C 14.5476 31.002 12.3934 27.6191 10.226 23.6074 C 7.2383 18.0771 5.7233 14.1309 5.7233 11.8779 C 5.7233 6.3101 10.109 1.7803 15.5 1.7803 C 20.891 1.7803 25.2767 6.3101 25.2767 11.8779 C 25.2767 14.1313 23.7617 18.0776 20.7739 23.6074 Z" fill="#012244"/>
		<path d="M 15.5 5.2183 C 11.9843 5.2183 9.1239 8.1729 9.1239 11.8037 C 9.1239 15.4355 11.9843 18.3896 15.5 18.3896 C 19.0157 18.3896 21.8761 15.4355 21.8761 11.8037 C 21.8761 8.1729 19.0157 5.2183 15.5 5.2183 ZM 15.5 16.6104 C 12.9343 16.6104 10.8472 14.4541 10.8472 11.8037 C 10.8472 9.1543 12.9343 6.998 15.5 6.998 C 18.0657 6.998 20.1528 9.1543 20.1528 11.8037 C 20.1528 14.4541 18.0657 16.6104 15.5 16.6104 Z" fill="#012244"/>
	</g>
</svg>