<?xml version="1.0" standalone="no"?>
<!-- Generator: Adobe Fireworks 10, Export SVG Extension by Aaron Beall (http://fireworks.abeall.com) . Version: 0.6.1  -->
<!DOCTYPE svg PUBLIC "-//W3C//DTD SVG 1.1//EN" "http://www.w3.org/Graphics/SVG/1.1/DTD/svg11.dtd">
<svg id="Untitled-P%E1gina%201" viewBox="0 0 31 35" style="background-color:#ffffff00" version="1.1"
	xmlns="http://www.w3.org/2000/svg" xmlns:xlink="http://www.w3.org/1999/xlink" xml:space="preserve"
	x="0px" y="0px" width="31px" height="35px"
>
	<g id="Capa%201">
		<g visibility="hidden">
			<path d="M 31 9.0977 L 31 8.9756 C 31 8.5229 30.7966 7.9897 30.4313 7.6206 L 30.3899 7.5786 C 30.3899 7.5786 30.3484 7.5786 30.3484 7.5371 C 30.2656 7.4531 30.1865 7.415 30.1036 7.3311 C 30.0623 7.3311 30.0623 7.2891 30.0208 7.2891 C 29.938 7.2476 29.8174 7.2056 29.7345 7.1675 C 29.6931 7.1675 29.6931 7.126 29.6516 7.126 C 29.5313 7.084 29.407 7.042 29.2864 7.042 C 29.2449 7.042 29.2449 7.042 29.2035 7.042 C 29.083 7.042 28.9172 7 28.7554 7 L 2.1995 7 C 2.0375 7 1.8755 7 1.71 7.042 C 1.6685 7.042 1.627 7.042 1.5894 7.084 C 1.4688 7.126 1.3445 7.126 1.2654 7.1675 C 1.2241 7.1675 1.2241 7.2095 1.1826 7.2095 C 1.0997 7.251 0.9792 7.293 0.8964 7.3311 L 0.8549 7.373 C 0.772 7.415 0.6929 7.4951 0.6101 7.5371 C 0.5686 7.5786 0.5272 7.6206 0.4895 7.6587 C 0.2034 7.9863 0.0415 8.3594 0 8.7705 C 0 8.8125 0 8.8125 0 8.854 L 0 27.1499 C 0 27.1919 0 27.1919 0 27.2334 C 0.0829 27.8086 0.3652 28.3032 0.772 28.5889 C 1.1375 28.8364 1.5856 29 2.1129 29 L 28.8381 29 C 28.8381 29 28.8381 29 28.8795 29 L 28.8795 29 C 29.0001 29 29.1658 29 29.2864 28.958 C 29.3278 28.958 29.3278 28.958 29.3691 28.958 C 29.4897 28.916 29.614 28.916 29.6931 28.874 L 29.7345 28.874 C 30.6309 28.5469 30.9961 27.7627 30.9961 27.0244 L 30.9961 26.9023 L 30.9961 26.8604 L 30.9961 26.8184 L 30.9961 9.2197 C 30.9961 9.1777 30.9961 9.1777 30.9961 9.1357 C 31 9.1396 31 9.1396 31 9.0977 ZM 28.3975 8.5229 L 15.5847 21.1426 L 12.6545 18.2646 L 12.6545 18.2646 L 2.6062 8.519 L 28.3975 8.519 L 28.3975 8.5229 ZM 1.5103 26.6553 L 1.5103 9.5508 L 10.9861 18.7598 L 1.5103 26.6553 ZM 15.178 27.5156 L 2.8511 27.5156 L 12.0859 19.8672 L 15.0537 22.7871 C 15.1742 22.9092 15.2986 22.9512 15.4189 22.9932 L 15.4604 22.9932 C 15.502 22.9932 15.502 22.9932 15.5432 22.9932 L 15.5432 22.9932 C 15.5847 22.9932 15.6262 22.9932 15.6262 22.9932 L 15.6676 22.9932 C 15.7881 22.9512 15.9539 22.9092 16.033 22.7871 L 18.8387 20.0313 L 28.1113 27.5156 L 15.178 27.5156 L 15.178 27.5156 ZM 29.4935 26.6929 L 19.9762 18.9233 L 29.4935 9.5508 L 29.4935 26.6929 Z" fill="#012244"/>
		</g>
		<g visibility="hidden">
			<path d="M 15.5 0 C 9.1589 0 4 5.3286 4 11.8779 C 4 14.5103 5.5002 18.5127 8.7213 24.4751 C 10.9193 28.5435 13.1072 31.9795 13.1995 32.124 L 14.7808 34.6001 C 14.9402 34.8496 15.2103 35 15.5 35 C 15.7897 35 16.0598 34.8496 16.2192 34.6001 L 17.8005 32.124 C 17.892 31.9814 20.0638 28.5752 22.2787 24.4751 C 25.4999 18.5137 27 14.5107 27 11.8779 C 27 5.3286 21.8411 0 15.5 0 ZM 20.7739 23.6074 C 18.5898 27.6504 16.4523 31.0029 16.3622 31.144 L 15.5 32.4941 L 14.6381 31.1445 C 14.5476 31.002 12.3934 27.6191 10.226 23.6074 C 7.2383 18.0771 5.7233 14.1309 5.7233 11.8779 C 5.7233 6.3101 10.109 1.7803 15.5 1.7803 C 20.891 1.7803 25.2767 6.3101 25.2767 11.8779 C 25.2767 14.1313 23.7617 18.0776 20.7739 23.6074 Z" fill="#012244"/>
			<path d="M 15.5 5.2183 C 11.9843 5.2183 9.1239 8.1729 9.1239 11.8037 C 9.1239 15.4355 11.9843 18.3896 15.5 18.3896 C 19.0157 18.3896 21.8761 15.4355 21.8761 11.8037 C 21.8761 8.1729 19.0157 5.2183 15.5 5.2183 ZM 15.5 16.6104 C 12.9343 16.6104 10.8472 14.4541 10.8472 11.8037 C 10.8472 9.1543 12.9343 6.998 15.5 6.998 C 18.0657 6.998 20.1528 9.1543 20.1528 11.8037 C 20.1528 14.4541 18.0657 16.6104 15.5 16.6104 Z" fill="#012244"/>
		</g>
		<g>
			<path d="M 26.7123 29.4922 L 23.6646 24.1719 C 23.0569 23.1152 21.6887 22.7783 20.6157 23.4219 L 17.993 24.9951 C 17.8809 24.8857 17.7646 24.7725 17.6426 24.6523 C 16.5199 23.5586 14.9836 22.0605 13.5872 19.6211 C 12.1865 17.1758 11.6587 15.0688 11.2728 13.5308 C 11.2317 13.3677 11.1931 13.2109 11.1539 13.0615 L 12.9136 12.0068 L 13.7793 11.4873 C 14.8541 10.8423 15.2336 9.4565 14.6277 8.3984 L 11.58 3.0771 C 10.9744 2.0195 9.606 1.6826 8.531 2.3271 L 7.062 3.2144 L 7.0858 3.2554 C 6.5658 3.6602 6.0894 4.1611 5.6855 4.7295 C 5.3079 5.2725 5.0215 5.8105 4.8105 6.3696 C 3.0845 10.8462 4.0693 15.6191 8.2069 22.8428 C 13.9268 32.8262 20.321 33.8896 20.5975 33.9316 C 21.2028 34.0166 21.801 34.0225 22.4304 33.9482 C 23.1067 33.8662 23.7654 33.6855 24.3641 33.4204 L 24.3838 33.4497 L 25.8639 32.583 C 26.9368 31.938 27.3174 30.5527 26.7123 29.4922 ZM 25.187 31.4004 L 24.5321 31.7925 L 24.2732 31.9409 C 23.8652 32.1763 23.186 32.4785 22.2786 32.5889 C 21.7642 32.6484 21.2732 32.6436 20.7898 32.5762 C 20.7292 32.5664 14.728 31.5156 9.3621 22.1494 C 4.7998 14.186 4.7404 10.2813 6.0568 6.8652 C 6.2283 6.4116 6.4631 5.9717 6.772 5.5288 C 7.3131 4.7686 7.9023 4.3096 8.3 4.0596 L 9.2076 3.5088 C 9.6444 3.2461 10.1909 3.3623 10.4246 3.7705 L 13.4724 9.0908 C 13.7056 9.499 13.5393 10.0439 13.1019 10.3076 L 9.5868 12.4141 L 9.7307 12.9258 C 9.8108 13.21 9.8911 13.5273 9.9758 13.8701 C 10.3811 15.4893 10.9351 17.7046 12.4316 20.314 C 13.9236 22.9199 15.5393 24.4951 16.7179 25.6445 C 16.9727 25.8921 17.2051 26.1196 17.4111 26.333 L 17.7777 26.7119 L 21.2914 24.6035 C 21.7292 24.3418 22.2775 24.46 22.5112 24.8667 L 25.5575 30.1855 C 25.7903 30.5928 25.6243 31.1387 25.187 31.4004 Z" fill="#012244"/>
		</g>
	</g>
</svg>