<?xml version="1.0" standalone="no"?>
<!-- Generator: Adobe Fireworks 10, Export SVG Extension by Aaron Beall (http://fireworks.abeall.com) . Version: 0.6.1  -->
<!DOCTYPE svg PUBLIC "-//W3C//DTD SVG 1.1//EN" "http://www.w3.org/Graphics/SVG/1.1/DTD/svg11.dtd">
<svg id="Untitled-P%E1gina%201" viewBox="0 0 139 89" style="background-color:#ffffff00" version="1.1"
	xmlns="http://www.w3.org/2000/svg" xmlns:xlink="http://www.w3.org/1999/xlink" xml:space="preserve"
	x="0px" y="0px" width="139px" height="89px"
>
	<g>
		<path d="M 71.5398 1.2413 L 69.5001 0 L 67.4603 1.2413 C 58.3624 6.8003 47.4711 8.7157 37 6.5983 L 37 53.7683 C 36.9977 59.5554 38.5505 65.2386 41.499 70.2333 C 44.8774 75.973 49.9989 80.5074 56.1317 83.189 L 69.5001 89 L 82.8683 83.189 C 83.5844 82.8821 84.2869 82.545 84.9763 82.1776 L 84.9763 82.1685 C 90.1833 79.4165 94.5173 75.2844 97.4949 70.2333 C 100.4467 65.2375 102.0016 59.5519 102 53.7622 L 102 6.5983 C 91.529 8.7157 80.6376 6.8003 71.5398 1.2413 Z" fill="#089de8"/>
		<path d="M 69.5001 9.2069 L 67.8828 10.192 C 60.6664 14.5991 52.0284 16.1161 43.7245 14.4349 L 43.7245 51.8455 C 43.7196 56.4365 44.9482 60.946 47.2839 64.9102 C 49.9641 69.464 54.0264 73.062 58.8911 75.1912 L 69.5001 79.7931 L 69.5001 9.2069 Z" fill="#043877"/>
		<path d="M 54.0239 47.569 L 66.4048 59.8448 L 92.7142 33.7585 L 86.5239 27.6207 L 66.4048 47.569 L 60.2143 41.431 L 54.0239 47.569 Z" fill="#ffffff"/>
	</g>
</svg>