<?xml version="1.0" standalone="no"?>
<!-- Generator: Adobe Fireworks 10, Export SVG Extension by Aaron Beall (http://fireworks.abeall.com) . Version: 0.6.1  -->
<!DOCTYPE svg PUBLIC "-//W3C//DTD SVG 1.1//EN" "http://www.w3.org/Graphics/SVG/1.1/DTD/svg11.dtd">
<svg id="Untitled-P%E1gina%201" viewBox="0 0 91 90" style="background-color:#ffffff00" version="1.1"
	xmlns="http://www.w3.org/2000/svg" xmlns:xlink="http://www.w3.org/1999/xlink" xml:space="preserve"
	x="0px" y="0px" width="91px" height="90px"
>
	<g id="66027">
		<path d="M 60.3033 63.4084 C 60.246 63.4084 60.1884 63.4084 60.1311 63.4084 L 56.3435 63.2646 L 53.5315 65.8116 C 52.6515 66.6062 51.5134 67.0466 50.3275 67.0466 C 49.7058 67.0466 49.0936 66.932 48.5197 66.6924 L 45.0095 65.2563 L 41.4994 66.6924 C 40.9257 66.932 40.3135 67.0466 39.6919 67.0466 C 38.5059 67.0466 37.3676 66.6062 36.4877 65.8116 L 33.6757 63.2646 L 29.8882 63.4084 C 29.8308 63.4084 29.7733 63.4084 29.7161 63.4084 C 27.937 63.4084 26.3208 62.432 25.4885 60.8521 L 23.719 57.4913 L 23.5756 57.4435 L 23.5756 87.0953 C 23.5756 88.8762 25.4503 90.0342 27.0378 89.2303 L 43.9481 80.7283 C 44.6271 80.3932 45.421 80.3932 46.0999 80.7283 L 62.9811 89.2401 C 64.5691 90.0438 66.4437 88.8856 66.4437 87.1047 L 66.4437 57.4532 L 66.3003 57.5011 L 64.5309 60.8618 C 63.7079 62.432 62.0822 63.4084 60.3033 63.4084 L 60.3033 63.4084 Z" fill="#043877"/>
		<path d="M 68.1364 41.8661 C 67.6486 43.0054 67.094 44.1064 66.453 45.1597 C 65.4199 46.8542 64.1863 48.4341 62.761 49.8512 C 60.4561 52.1587 57.7686 53.9683 54.7845 55.2318 C 51.6855 56.5437 48.3954 57.204 45.0095 57.204 C 41.6237 57.204 38.3334 56.5437 35.2346 55.2318 C 32.241 53.9683 29.5627 52.1584 27.2578 49.8512 C 25.8329 48.4247 24.5989 46.8542 23.5659 45.1597 C 22.925 44.1068 22.3607 43.0153 21.8826 41.8661 C 20.5723 38.7642 19.9124 35.4707 19.9124 32.0814 C 19.9124 28.6921 20.5723 25.3986 21.8826 22.2964 C 23.145 19.2997 24.9529 16.6187 27.2577 14.3114 C 29.5625 12.004 32.2504 10.1947 35.2344 8.9307 C 38.3331 7.619 41.6237 6.9583 45.0093 6.9583 C 48.3951 6.9583 51.6855 7.619 54.7844 8.9307 C 57.778 10.1947 60.4561 12.004 62.761 14.3114 C 65.066 16.6187 66.8737 19.3092 68.1362 22.2964 C 69.4467 25.3986 70.1066 28.6921 70.1066 32.0814 C 70.1068 35.4707 69.4467 38.7642 68.1364 41.8661 L 68.1364 41.8661 ZM 77.634 33.3546 C 78.1219 32.5792 78.1219 31.593 77.634 30.8081 L 75.616 27.5909 C 75.281 27.0643 75.1759 26.423 75.3002 25.8196 L 76.1035 22.1049 C 76.2949 21.205 75.9602 20.2761 75.2332 19.7112 L 72.2394 17.3849 C 71.7518 17.0017 71.4266 16.4464 71.3406 15.8241 L 70.8145 12.0616 C 70.6901 11.152 70.0493 10.3956 69.1788 10.1083 L 65.573 8.9402 C 64.9802 8.7488 64.4827 8.3275 64.1958 7.7819 L 62.4264 4.4214 C 62.0151 3.6361 61.1925 3.1478 60.3125 3.1478 C 60.2838 3.1478 60.2552 3.1478 60.2266 3.1478 L 56.439 3.2916 C 56.4103 3.2916 56.3815 3.2916 56.3529 3.2916 C 55.7598 3.2916 55.1862 3.071 54.7461 2.6692 L 51.9341 0.1223 C 51.4845 -0.2798 50.9106 -0.5 50.3273 -0.5 C 50.0214 -0.5 49.7153 -0.4425 49.4282 -0.3182 L 45.9182 1.1182 C 45.6312 1.2329 45.3252 1.3 45.019 1.3 C 44.7131 1.3 44.407 1.2424 44.1201 1.1182 L 40.6101 -0.3182 C 40.3134 -0.4331 40.0073 -0.5 39.7108 -0.5 C 39.1274 -0.5 38.5536 -0.2894 38.1041 0.1223 L 35.292 2.6692 C 34.8522 3.071 34.2783 3.2916 33.6853 3.2916 C 33.6565 3.2916 33.6278 3.2916 33.5991 3.2916 L 29.8116 3.1478 C 29.7831 3.1478 29.754 3.1478 29.7257 3.1478 C 28.8455 3.1478 28.0231 3.6361 27.6118 4.4214 L 25.8425 7.7819 C 25.5554 8.3369 25.0581 8.7488 24.4652 8.9402 L 20.8595 10.1083 C 19.989 10.386 19.3484 11.152 19.2239 12.0616 L 18.6978 15.8241 C 18.6118 16.4464 18.2864 17.0017 17.7988 17.3849 L 14.7668 19.7112 C 14.0398 20.2761 13.7051 21.205 13.8962 22.1049 L 14.6997 25.8196 C 14.8337 26.4326 14.719 27.0643 14.384 27.5909 L 12.366 30.8081 C 11.8781 31.5836 11.8781 32.5697 12.366 33.3546 L 14.384 36.5718 C 14.719 37.0984 14.824 37.7395 14.6997 38.3428 L 13.8962 42.0579 C 13.7051 42.9575 14.0398 43.8864 14.7668 44.4515 L 17.7605 46.7781 C 18.2483 47.161 18.5735 47.7162 18.6597 48.3386 L 19.1858 52.1011 C 19.3101 53.0107 19.9508 53.7671 20.8213 54.0542 L 23.5566 54.9352 L 24.4366 55.2224 C 25.0295 55.4138 25.5269 55.8352 25.8137 56.3809 L 27.5833 59.7415 C 27.9944 60.5266 28.817 61.015 29.6969 61.015 C 29.7258 61.015 29.7542 61.015 29.7831 61.015 L 33.5707 60.8712 C 33.5994 60.8712 33.6281 60.8712 33.6566 60.8712 C 34.2496 60.8712 34.8234 61.0918 35.2635 61.4938 L 38.0753 64.0403 C 38.5249 64.4427 39.0986 64.6627 39.6824 64.6627 C 39.9883 64.6627 40.2944 64.6052 40.5811 64.481 L 44.0914 63.0447 C 44.3784 62.9298 44.6844 62.8632 44.9905 62.8632 C 45.2965 62.8632 45.6025 62.9204 45.8894 63.0447 L 49.3998 64.481 C 49.696 64.5957 50.0021 64.6627 50.2986 64.6627 C 50.8822 64.6627 51.4562 64.4521 51.9056 64.0403 L 54.7174 61.4938 C 55.1572 61.0918 55.7313 60.8712 56.3245 60.8712 C 56.353 60.8712 56.3816 60.8712 56.4104 60.8712 L 60.198 61.015 C 60.2268 61.015 60.2552 61.015 60.2839 61.015 C 61.1639 61.015 61.9863 60.5266 62.3979 59.7415 L 64.1671 56.3809 C 64.4541 55.8254 64.9513 55.4138 65.5443 55.2224 L 66.4243 54.9352 L 69.1597 54.0542 C 70.0303 53.7767 70.6711 53.0107 70.7954 52.1011 L 71.3214 48.3386 C 71.4073 47.7162 71.7328 47.161 72.2203 46.7781 L 75.2141 44.4515 C 75.9413 43.8864 76.2758 42.9575 76.0846 42.0579 L 75.2811 38.3428 C 75.1475 37.7303 75.2621 37.0984 75.5968 36.5718 L 77.634 33.3546 L 77.634 33.3546 Z" fill="#089de8"/>
		<path d="M 54.8992 42.3929 C 55.3297 44.4131 53.1776 45.9927 51.3795 44.9684 L 45 41.3494 L 38.611 44.9684 C 36.8224 45.9833 34.6606 44.4036 35.0913 42.3929 L 36.6213 35.174 L 31.6289 30.6642 L 31.0741 30.157 C 29.5533 28.7782 30.3568 26.2506 32.3844 26.0017 L 39.6533 25.1111 L 42.8192 18.3231 C 43.6802 16.4849 46.2914 16.4849 47.152 18.3231 L 50.3179 25.1111 L 57.5869 26.0017 C 59.6243 26.2506 60.418 28.7782 58.8972 30.157 L 58.3425 30.6642 L 53.3499 35.174 L 54.8992 42.3929 L 54.8992 42.3929 ZM 45 9.8212 C 32.719 9.8212 22.7626 19.7877 22.7626 32.0814 C 22.7626 34.1206 23.0399 36.1024 23.5564 37.9792 C 26.1389 47.4098 34.766 54.3417 45 54.3417 C 55.234 54.3417 63.861 47.4099 66.4436 37.9792 C 66.96 36.1024 67.2374 34.1206 67.2374 32.0814 C 67.2374 19.7877 57.2809 9.8212 45 9.8212 L 45 9.8212 Z" fill="#089de8"/>
	</g>
</svg>