<?xml version="1.0" standalone="no"?>
<!-- Generator: Adobe Fireworks 10, Export SVG Extension by Aaron Beall (http://fireworks.abeall.com) . Version: 0.6.1  -->
<!DOCTYPE svg PUBLIC "-//W3C//DTD SVG 1.1//EN" "http://www.w3.org/Graphics/SVG/1.1/DTD/svg11.dtd">
<svg id="Untitled-P%E1gina%201" viewBox="0 0 139 89" style="background-color:#ffffff00" version="1.1"
	xmlns="http://www.w3.org/2000/svg" xmlns:xlink="http://www.w3.org/1999/xlink" xml:space="preserve"
	x="0px" y="0px" width="139px" height="89px"
>
	<g>
		<path d="M 46.7047 48.0032 C 46.0793 47.7415 45.3593 47.8853 44.88 48.3677 L 39.3696 53.9263 L 33.8591 48.3677 C 33.2063 47.7078 32.1464 47.7065 31.4917 48.3646 C 31.1761 48.6819 30.9993 49.1132 31 49.5624 L 31 83.3123 C 31 84.2443 31.7495 84.9999 32.674 84.9999 L 46.0652 84.9999 C 46.9897 84.9999 47.7391 84.2443 47.7391 83.3123 L 47.7391 49.5624 C 47.7391 48.8796 47.3307 48.2642 46.7047 48.0032 Z" fill="#089de8"/>
		<path d="M 60.6416 34.8678 C 59.9882 34.209 58.9285 34.209 58.2748 34.8678 L 51.579 41.6177 C 51.264 41.9344 51.0872 42.3641 51.087 42.8125 L 51.087 83.3125 C 51.087 84.2444 51.8364 85 52.7609 85 L 66.1521 85 C 67.0767 85 67.826 84.2444 67.826 83.3125 L 67.826 42.8125 C 67.8268 42.3647 67.6511 41.9348 67.3373 41.6177 L 60.6416 34.8678 Z" fill="#089de8"/>
		<path d="M 80.7286 28.1178 C 80.075 27.459 79.0153 27.459 78.3616 28.1178 L 71.666 34.8678 C 71.3511 35.1843 71.1738 35.6141 71.1737 36.0625 L 71.1737 83.3125 C 71.1737 84.2444 71.9233 85 72.8479 85 L 86.2389 85 C 87.1635 85 87.913 84.2444 87.913 83.3125 L 87.913 36.0625 C 87.9138 35.6146 87.7379 35.1848 87.4241 34.8678 L 80.7286 28.1178 Z" fill="#089de8"/>
		<path d="M 107.5111 24.7428 L 104.1633 21.3678 C 103.849 21.0516 103.4226 20.8743 102.9783 20.875 L 99.6304 20.875 C 99.1862 20.8743 98.7598 21.0514 98.4451 21.3678 L 91.7496 28.1179 C 91.4358 28.4349 91.2599 28.8647 91.2606 29.3126 L 91.2606 83.3125 C 91.2606 84.2444 92.0101 85 92.9347 85 L 106.3258 85 C 107.2504 85 107.9999 84.2444 107.9999 83.3125 L 107.9999 25.9375 C 108.0006 25.4896 107.825 25.0598 107.5111 24.7428 Z" fill="#043877"/>
		<path d="M 106.326 4 L 96.2825 4 C 95.3583 3.9982 94.6073 4.7526 94.6057 5.6844 C 94.605 6.1339 94.7817 6.5649 95.0975 6.8823 L 98.9374 10.7501 L 86.239 23.5513 L 80.7286 17.9928 C 80.075 17.334 79.0153 17.334 78.3616 17.9928 L 66.1521 30.3014 L 60.6416 24.7428 C 59.9879 24.084 58.9285 24.084 58.2747 24.7428 L 39.3696 43.8013 L 33.8591 38.2428 C 33.1942 37.5952 32.1344 37.6139 31.4922 38.2842 C 30.8656 38.9382 30.8656 39.9749 31.4922 40.6287 L 38.1877 47.3788 C 38.8414 48.0376 39.901 48.0376 40.5548 47.3788 L 59.4565 28.3236 L 64.9672 33.8788 C 65.6207 34.5375 66.6803 34.5375 67.334 33.8788 L 79.5435 21.5736 L 85.0541 27.129 C 85.7076 27.7877 86.7672 27.7877 87.4209 27.129 L 101.3042 13.1362 L 105.1409 17.004 C 105.4548 17.3215 105.8813 17.4999 106.326 17.5 C 106.5455 17.5006 106.7628 17.4568 106.9655 17.3717 C 107.5916 17.111 107.9999 16.4955 108 15.8126 L 108 5.6876 C 107.9999 4.7556 107.2505 4 106.326 4 Z" fill="#043877"/>
	</g>
</svg>