<?xml version="1.0" standalone="no"?>
<!-- Generator: Adobe Fireworks 10, Export SVG Extension by Aaron Beall (http://fireworks.abeall.com) . Version: 0.6.1  -->
<!DOCTYPE svg PUBLIC "-//W3C//DTD SVG 1.1//EN" "http://www.w3.org/Graphics/SVG/1.1/DTD/svg11.dtd">
<svg id="Untitled-P%E1gina%201" viewBox="0 0 91 90" style="background-color:#ffffff00" version="1.1"
	xmlns="http://www.w3.org/2000/svg" xmlns:xlink="http://www.w3.org/1999/xlink" xml:space="preserve"
	x="0px" y="0px" width="91px" height="90px"
>
	<g>
		<path d="M 13.7974 18.2495 C 14.7993 19.0092 16.2306 18.8177 16.9953 17.8226 C 23.7252 9.0598 33.9323 4.0348 44.9999 4.0348 C 56.0674 4.0348 66.2745 9.0602 73.0044 17.8226 C 73.4535 18.4073 74.1326 18.7142 74.8198 18.7142 C 75.3022 18.7142 75.7892 18.5627 76.2024 18.2495 C 77.2037 17.4894 77.3958 16.0668 76.6316 15.0712 C 69.0311 5.1754 57.5018 -0.5 44.9999 -0.5 C 32.4979 -0.5 20.9687 5.1754 13.3683 15.0712 C 12.6039 16.0668 12.7959 17.4894 13.7974 18.2495 L 13.7974 18.2495 Z" fill="#089de8"/>
		<path d="M 69.2521 30.3444 C 69.2521 34.2488 72.4489 37.4258 76.3778 37.4258 C 80.3066 37.4258 83.5032 34.2488 83.5032 30.3444 C 83.5032 26.4397 80.3066 23.2628 76.3778 23.2628 C 72.4489 23.2628 69.2521 26.4395 69.2521 30.3444 L 69.2521 30.3444 Z" fill="#089de8"/>
		<path d="M 83.67 39.7758 C 83.6536 39.7701 81.8583 39.2228 81.8583 39.2228 C 81.2081 39.0255 80.5021 39.147 79.9578 39.5519 L 76.3778 42.2158 L 72.7977 39.5519 C 72.2529 39.1467 71.5466 39.0251 70.8972 39.2228 C 70.8972 39.2228 69.1017 39.7701 69.0853 39.7758 C 66.1965 40.7329 64.2557 43.4092 64.2557 46.4352 L 64.2557 57.141 C 64.2557 57.5538 64.3771 57.9579 64.6057 58.3026 L 68.2183 63.7667 L 68.2183 78.1157 C 68.2183 79.2844 69.1715 80.2317 70.3477 80.2317 L 82.4081 80.2317 C 83.5841 80.2317 84.5372 79.2844 84.5372 78.1157 L 84.5372 63.7667 L 88.15 58.3026 C 88.3784 57.9576 88.5 57.5535 88.5 57.141 L 88.5 46.4352 C 88.5 43.4092 86.559 40.7329 83.67 39.7758 L 83.67 39.7758 Z" fill="#089de8"/>
		<path d="M 13.622 37.4258 C 17.5509 37.4258 20.7477 34.2488 20.7477 30.3444 C 20.7477 26.4397 17.5509 23.2628 13.622 23.2628 C 9.6931 23.2628 6.496 26.4395 6.496 30.3444 C 6.496 34.2491 9.6929 37.4258 13.622 37.4258 L 13.622 37.4258 Z" fill="#089de8"/>
		<path d="M 20.9144 39.7758 C 20.8979 39.7701 19.1026 39.2228 19.1026 39.2228 C 18.4521 39.0255 17.7466 39.147 17.2021 39.5519 L 13.622 42.2158 L 10.0421 39.5519 C 9.4977 39.1467 8.7909 39.0251 8.1415 39.2228 C 8.1415 39.2228 6.3461 39.7701 6.3296 39.7758 C 3.4408 40.7329 1.5 43.4092 1.5 46.4352 L 1.5 57.141 C 1.5 57.5538 1.6213 57.9579 1.85 58.3026 L 5.4627 63.7667 L 5.4627 78.1157 C 5.4627 79.2844 6.4158 80.2317 7.5919 80.2317 L 19.652 80.2317 C 20.8281 80.2317 21.7813 79.2844 21.7813 78.1157 L 21.7813 63.7667 L 25.394 58.3026 C 25.6223 57.9576 25.7441 57.5535 25.7441 57.141 L 25.7441 46.4352 C 25.7441 43.4092 23.803 40.7329 20.9144 39.7758 L 20.9144 39.7758 Z" fill="#089de8"/>
		<path d="M 54.1906 20.364 C 54.1906 15.3276 50.0675 11.2301 44.9999 11.2301 C 39.9321 11.2301 35.8092 15.3276 35.8092 20.364 C 35.8092 25.4006 39.9321 29.4979 44.9999 29.4979 C 50.0675 29.4979 54.1906 25.4006 54.1906 20.364 L 54.1906 20.364 Z" fill="#043877"/>
		<path d="M 55.0948 33.9244 L 55.0795 33.9197 L 52.4563 33.1196 C 52.0426 32.9933 51.6003 33.2108 51.4515 33.6167 L 45.9357 48.6575 C 45.6174 49.525 44.3828 49.525 44.0643 48.6575 L 38.5485 33.6167 C 38.4282 33.2892 38.1172 33.0836 37.7837 33.0836 C 37.7047 33.0836 34.9236 33.9185 34.9236 33.9185 C 31.5728 35.0282 29.3337 38.1155 29.3337 41.6064 L 29.3337 57.5173 C 29.3337 57.6752 29.3804 57.8297 29.4676 57.9618 L 35.2233 66.6661 L 35.2233 88.6903 C 35.2233 89.1376 35.588 89.5 36.0381 89.5 L 53.9619 89.5 C 54.412 89.5 54.7767 89.1376 54.7767 88.6903 L 54.7767 66.6661 L 60.5323 57.9618 C 60.6196 57.8297 60.6661 57.6752 60.6661 57.5173 L 60.6661 41.5646 C 60.6659 38.0887 58.4183 35.0067 55.0948 33.9244 L 55.0948 33.9244 Z" fill="#043877"/>
		<path d="M 47.155 33.6079 C 46.9271 33.3611 46.594 33.2369 46.2567 33.2369 L 43.7427 33.2369 C 43.4058 33.2369 43.0725 33.3611 42.8445 33.6079 C 42.4916 33.9899 42.4404 34.5419 42.6908 34.9731 L 44.0345 36.9863 L 43.4054 42.2605 L 44.6444 45.5358 C 44.7651 45.8652 45.2336 45.8652 45.3547 45.5358 L 46.5936 42.2605 L 45.9647 36.9863 L 47.3083 34.9731 C 47.5591 34.5419 47.5078 33.9899 47.155 33.6079 L 47.155 33.6079 Z" fill="#043877"/>
	</g>
</svg>