<?xml version="1.0" standalone="no"?>
<!-- Generator: Adobe Fireworks 10, Export SVG Extension by Aaron Beall (http://fireworks.abeall.com) . Version: 0.6.1  -->
<!DOCTYPE svg PUBLIC "-//W3C//DTD SVG 1.1//EN" "http://www.w3.org/Graphics/SVG/1.1/DTD/svg11.dtd">
<svg id="Untitled-P%E1gina%201" viewBox="0 0 139 89" style="background-color:#ffffff00" version="1.1"
	xmlns="http://www.w3.org/2000/svg" xmlns:xlink="http://www.w3.org/1999/xlink" xml:space="preserve"
	x="0px" y="0px" width="139px" height="89px"
>
	<g>
		<g>
			<path d="M 10.2682 46.3781 L 23.3683 8.2595 L 38.9818 13.603 L 25.8818 51.7216 L 10.2682 46.3781 Z" fill="#043877"/>
			<path d="M 50.324 11.4869 L 48.8054 12.2322 C 46.9131 13.1516 44.6972 13.2759 42.7303 12.5802 L 40.1909 11.6855 C 40.0414 11.5863 39.892 11.5117 39.7427 11.462 L 24.1071 6.1201 C 22.9368 5.7227 21.6422 6.3438 21.2438 7.5115 L 8.1229 45.65 C 7.9237 46.2216 7.9735 46.8428 8.2225 47.3645 C 8.4715 47.8862 8.9445 48.3086 9.5172 48.5074 L 25.1279 53.8494 C 25.3768 53.9238 25.6258 53.9735 25.8499 53.9735 C 26.796 53.9735 27.6674 53.3772 27.9911 52.458 L 40.3651 16.5306 L 41.2116 16.8289 C 44.3237 17.9221 47.8094 17.7231 50.7971 16.2821 L 52.3159 15.5369 C 54.1832 14.6174 56.3741 14.4932 58.3411 15.1641 L 87.0477 25.0278 C 86.7491 26.2206 86.1515 27.6368 85.056 28.407 C 83.8361 29.2518 82.0186 29.2518 79.6283 28.4319 L 66.8312 24.059 C 66.2336 23.8601 65.5862 23.9099 65.0385 24.208 C 64.4907 24.5062 64.0923 25.0278 63.9181 25.6243 C 63.8932 25.6987 62.1254 32.3079 56.4738 35.339 C 52.9134 37.2522 48.4816 37.3268 43.2781 35.5625 C 42.1079 35.1652 40.8132 35.7864 40.4149 36.954 C 40.0165 38.1218 40.6389 39.4138 41.8092 39.8114 C 44.7968 40.8301 47.6102 41.3518 50.2245 41.3518 C 53.262 41.3518 56.0505 40.681 58.5901 39.3143 C 63.6442 36.6062 66.2585 31.8606 67.4535 29.0282 L 78.1346 32.6805 C 81.9437 33.9973 85.1307 33.7986 87.5955 32.0844 C 91.5543 29.3511 91.7534 23.8105 91.7783 23.5621 C 91.8032 22.5684 91.1808 21.6986 90.2595 21.3756 L 59.7851 10.8906 C 56.7227 9.847 53.262 10.0707 50.324 11.4869 ZM 24.4805 48.8552 L 13.1273 44.9792 L 24.7543 11.1141 L 36.1077 14.9902 L 24.4805 48.8552 Z" fill="#043877"/>
			<path d="M 112.8863 51.949 L 95.139 15.7539 L 109.9642 8.5146 L 127.7117 44.7097 L 112.8863 51.949 Z" fill="#089de8"/>
			<path d="M 110.1277 51.4143 L 104.7748 56.3339 C 99.9199 60.7814 94.4422 64.5332 88.5168 67.4152 L 60.1087 81.2794 C 58.8638 81.9004 57.3452 81.3787 56.7227 80.1117 C 56.1003 78.8693 56.6231 77.3538 57.8928 76.7324 L 58.2414 76.5586 L 58.2414 76.5586 L 73.7774 68.9806 C 74.8978 68.4338 75.3708 67.0923 74.8232 65.9742 C 74.2754 64.8561 72.931 64.3839 71.8105 64.9307 L 56.2745 72.5085 L 56.2745 72.5085 L 48.4568 76.3351 C 47.2119 76.9561 45.6931 76.4342 45.0707 75.1671 C 44.7719 74.5707 44.7221 73.875 44.9463 73.254 C 45.1703 72.608 45.6185 72.1111 46.216 71.8129 L 52.1167 68.9309 L 52.1167 68.9309 L 68.9971 60.6819 C 70.1176 60.1354 70.5905 58.7936 70.0428 57.6755 C 69.4951 56.5575 68.1506 56.0853 67.0303 56.6321 L 50.1249 64.9058 L 50.1249 64.9058 L 49.4776 65.2289 L 41.4108 69.1794 C 40.8132 69.4774 40.1161 69.5271 39.4937 69.3036 C 38.8463 69.0798 38.3483 68.6327 38.0496 68.0364 C 37.4271 66.7941 37.95 65.2784 39.2198 64.6572 L 42.0083 63.2908 L 42.0083 63.2908 L 47.7098 60.5081 L 49.3032 59.7377 L 49.3032 59.7377 L 62.3993 53.3275 C 63.5197 52.7809 63.9928 51.4392 63.4451 50.3212 C 62.8972 49.2031 61.5529 48.731 60.4324 49.2776 L 46.241 56.2095 L 40.0414 59.2408 C 38.7966 59.8372 37.2778 59.3402 36.6553 58.0731 C 36.3566 57.4768 36.3068 56.7811 36.5309 56.1599 C 36.7549 55.5138 37.2031 55.0172 37.8007 54.719 L 48.631 49.4266 C 49.7514 48.88 50.2245 47.5385 49.6767 46.4204 C 49.129 45.3022 47.7845 44.8301 46.6642 45.3767 L 35.8337 50.6689 C 34.1407 51.4889 32.871 52.9301 32.2734 54.6941 C 31.6759 56.458 31.7755 58.3713 32.597 60.0608 C 33.1199 61.1041 33.8668 61.974 34.7631 62.6199 C 33.1946 64.6821 32.7962 67.5146 34.0163 69.9991 C 34.8379 71.6887 36.2819 72.9558 38.0496 73.5522 C 38.7966 73.8008 39.5435 73.9248 40.2904 73.9248 C 40.2654 75.0428 40.4896 76.1611 41.0124 77.1797 C 42.2324 79.6642 44.747 81.1053 47.3364 81.1053 C 48.382 81.1053 49.4277 80.8817 50.4236 80.3848 L 52.0171 79.6146 C 52.0917 80.4594 52.3159 81.2793 52.6893 82.0743 C 53.9092 84.5588 56.4239 86 59.0133 86 C 60.0588 86 61.1047 85.7765 62.1005 85.2794 L 90.5084 71.4154 C 96.8325 68.3345 102.6585 64.359 107.8372 59.6136 L 114.1859 53.7747 L 128.7261 46.6688 C 129.8465 46.1222 130.3196 44.7805 129.7717 43.6624 L 111.9951 7.5115 C 111.7211 6.965 111.273 6.5674 110.7003 6.3685 C 110.1277 6.1697 109.5054 6.2195 108.9824 6.4679 L 94.1436 13.6982 C 93.0231 14.2448 92.55 15.5863 93.0978 16.7045 L 110.1277 51.4143 ZM 108.9326 11.5117 L 124.6926 43.6873 L 113.9122 48.9547 L 98.1522 16.7792 L 108.9326 11.5117 Z" fill="#089de8"/>
		</g>
	</g>
</svg>