<?xml version="1.0" standalone="no"?>
<!-- Generator: Adobe Fireworks 10, Export SVG Extension by Aaron Beall (http://fireworks.abeall.com) . Version: 0.6.1  -->
<!DOCTYPE svg PUBLIC "-//W3C//DTD SVG 1.1//EN" "http://www.w3.org/Graphics/SVG/1.1/DTD/svg11.dtd">
<svg id="Untitled-P%E1gina%201" viewBox="0 0 91 90" style="background-color:#ffffff00" version="1.1"
	xmlns="http://www.w3.org/2000/svg" xmlns:xlink="http://www.w3.org/1999/xlink" xml:space="preserve"
	x="0px" y="0px" width="91px" height="90px"
>
	<g>
		<path d="M 59.1667 5.125 L 53.0126 5.125 C 51.8455 1.8512 48.6947 -0.5 45 -0.5 C 41.3053 -0.5 38.1545 1.8512 36.9817 5.125 L 30.8333 5.125 C 29.2693 5.125 28 6.385 28 7.9375 L 28 19.1875 C 28 20.74 29.2693 22 30.8333 22 L 59.1667 22 C 60.7307 22 62 20.74 62 19.1875 L 62 7.9375 C 62 6.385 60.7307 5.125 59.1667 5.125 L 59.1667 5.125 Z" fill="#043877"/>
		<path d="M 64.8333 44.5 L 53.5 44.5 C 51.936 44.5 50.6667 43.24 50.6667 41.6875 C 50.6667 40.135 51.936 38.875 53.5 38.875 L 64.8333 38.875 C 66.3973 38.875 67.6667 40.135 67.6667 41.6875 C 67.6667 43.24 66.3973 44.5 64.8333 44.5 L 64.8333 44.5 ZM 64.8333 67 L 53.5 67 C 51.936 67 50.6667 65.74 50.6667 64.1875 C 50.6667 62.635 51.936 61.375 53.5 61.375 L 64.8333 61.375 C 66.3973 61.375 67.6667 62.635 67.6667 64.1875 C 67.6667 65.74 66.3973 67 64.8333 67 L 64.8333 67 ZM 44.1726 38.0537 L 32.8394 49.3037 C 32.2841 49.8494 31.5587 50.125 30.8333 50.125 C 30.108 50.125 29.3826 49.8494 28.8273 49.3037 L 23.1606 43.6787 C 22.0557 42.5819 22.0557 40.7988 23.1606 39.7018 C 24.2656 38.605 26.062 38.605 27.167 39.7018 L 30.8333 43.3356 L 40.1606 34.0768 C 41.2656 32.98 43.062 32.98 44.1671 34.0768 C 45.272 35.1738 45.2776 36.9512 44.1726 38.0537 L 44.1726 38.0537 ZM 44.1726 60.5537 L 32.8394 71.8037 C 32.2841 72.3494 31.5587 72.625 30.8333 72.625 C 30.108 72.625 29.3826 72.3494 28.8273 71.8037 L 23.1606 66.1787 C 22.0557 65.0819 22.0557 63.2988 23.1606 62.2018 C 24.2656 61.105 26.062 61.105 27.167 62.2018 L 30.8333 65.8356 L 40.1606 56.5768 C 41.2656 55.48 43.062 55.48 44.1671 56.5768 C 45.272 57.6738 45.2776 59.4512 44.1726 60.5537 L 44.1726 60.5537 ZM 73.3333 10.75 L 67.6667 10.75 L 67.6667 19.1875 C 67.6667 23.8394 63.853 27.625 59.1667 27.625 L 30.8333 27.625 C 26.147 27.625 22.3334 23.8394 22.3334 19.1875 L 22.3334 10.75 L 16.6666 10.75 C 13.5444 10.75 11 13.2756 11 16.375 L 11 83.875 C 11 87.0305 13.4877 89.5 16.6666 89.5 L 73.3333 89.5 C 76.5122 89.5 79 87.0305 79 83.875 L 79 16.375 C 79 13.2195 76.5122 10.75 73.3333 10.75 L 73.3333 10.75 Z" fill="#089de8"/>
	</g>
</svg>